Merritest-Light.ufo
<glyph name="exclam" format="1">
  <advance width="706"/>
  <unicode hex="0021"/>
  <outline>
    <contour>
      <point x="293" y="454" type="line"/>
      <point x="248" y="1780" type="line"/>
      <point x="438" y="1780" type="line"/>
      <point x="385" y="454" type="line"/>
    </contour>
    <contour>
      <point x="240" y="73" type="curve" smooth="yes"/>
      <point x="240" y="136"/>
      <point x="301" y="185"/>
      <point x="358" y="185" type="curve" smooth="yes"/>
      <point x="426" y="185"/>
      <point x="457" y="141"/>
      <point x="457" y="90" type="curve" smooth="yes"/>
      <point x="457" y="23"/>
      <point x="398" y="-22"/>
      <point x="339" y="-22" type="curve" smooth="yes"/>
      <point x="288" y="-22"/>
      <point x="240" y="15"/>
    </contour>
  </outline>
</glyph>
<glyph name="dollar" format="1">
  <advance width="1270"/>
  <unicode hex="0024"/>
  <outline>
    <contour>
      <point x="174" y="63" type="curve"/>
      <point x="174" y="362" type="line"/>
      <point x="247" y="362" type="line"/>
      <point x="294" y="158" type="line"/>
      <point x="378" y="79"/>
      <point x="531" y="57"/>
      <point x="649" y="57" type="curve" smooth="yes"/>
      <point x="819" y="57"/>
      <point x="1008" y="136"/>
      <point x="1008" y="355" type="curve"/>
      <point x="1007" y="539"/>
      <point x="814" y="636"/>
      <point x="615" y="733" type="curve" smooth="yes"/>
      <point x="403" y="837"/>
      <point x="185" y="950"/>
      <point x="184" y="1177" type="curve"/>
      <point x="184" y="1430"/>
      <point x="412" y="1543"/>
      <point x="608" y="1562" type="curve"/>
      <point x="614" y="1731" type="line"/>
      <point x="734" y="1731" type="line"/>
      <point x="728" y="1565" type="line"/>
      <point x="898" y="1557"/>
      <point x="1001" y="1518"/>
      <point x="1054" y="1487" type="curve"/>
      <point x="1054" y="1220" type="line"/>
      <point x="986" y="1220" type="line"/>
      <point x="927" y="1419" type="line"/>
      <point x="869" y="1470"/>
      <point x="763" y="1489"/>
      <point x="657" y="1488" type="curve"/>
      <point x="513" y="1488"/>
      <point x="321" y="1411"/>
      <point x="321" y="1200" type="curve"/>
      <point x="322" y="1031"/>
      <point x="499" y="939"/>
      <point x="689" y="849" type="curve"/>
      <point x="908" y="743"/>
      <point x="1146" y="630"/>
      <point x="1146" y="394" type="curve" smooth="yes"/>
      <point x="1146" y="118"/>
      <point x="938" y="-7"/>
      <point x="679" y="-21" type="curve"/>
      <point x="672" y="-231" type="line"/>
      <point x="552" y="-231" type="line"/>
      <point x="558" y="-21" type="line"/>
      <point x="385" y="-11"/>
      <point x="224" y="32"/>
    </contour>
  </outline>
</glyph>
<glyph name="parenleft" format="1">
  <advance width="813"/>
  <unicode hex="0028"/>
  <outline>
    <contour>
      <point x="587" y="-294" type="line"/>
      <point x="494" y="-239"/>
      <point x="114" y="70"/>
      <point x="114" y="735" type="curve" smooth="yes"/>
      <point x="114" y="1316"/>
      <point x="500" y="1684"/>
      <point x="593" y="1735" type="curve"/>
      <point x="662" y="1694" type="line"/>
      <point x="575" y="1638"/>
      <point x="270" y="1322"/>
      <point x="254" y="784" type="curve" smooth="yes"/>
      <point x="236" y="158"/>
      <point x="570" y="-180"/>
      <point x="666" y="-246" type="curve"/>
    </contour>
  </outline>
</glyph>
<glyph name="asterisk" format="1">
  <advance width="1295"/>
  <unicode hex="002A"/>
  <outline>
    <contour>
      <point x="573" y="768" type="line"/>
      <point x="597" y="1132" type="line"/>
      <point x="616" y="1239" type="line"/>
      <point x="546" y="1175" type="line"/>
      <point x="240" y="945" type="line"/>
      <point x="164" y="1052" type="line"/>
      <point x="505" y="1241" type="line"/>
      <point x="594" y="1278" type="line"/>
      <point x="504" y="1316" type="line"/>
      <point x="164" y="1501" type="line"/>
      <point x="237" y="1609" type="line"/>
      <point x="541" y="1384" type="line"/>
      <point x="616" y="1317" type="line"/>
      <point x="597" y="1434" type="line"/>
      <point x="573" y="1786" type="line"/>
      <point x="615" y="1786"/>
      <point x="670" y="1785"/>
      <point x="711" y="1785" type="curve"/>
      <point x="687" y="1434" type="line"/>
      <point x="664" y="1317" type="line"/>
      <point x="757" y="1395" type="line"/>
      <point x="1046" y="1608" type="line"/>
      <point x="1130" y="1501" type="line"/>
      <point x="788" y="1322" type="line"/>
      <point x="685" y="1278" type="line"/>
      <point x="786" y="1237" type="line"/>
      <point x="1131" y="1050" type="line"/>
      <point x="1045" y="947" type="line"/>
      <point x="745" y="1172" type="line"/>
      <point x="665" y="1239" type="line"/>
      <point x="685" y="1132" type="line"/>
      <point x="711" y="768" type="line"/>
    </contour>
  </outline>
</glyph>
<glyph name="hyphen" format="1">
  <advance width="1229"/>
  <unicode hex="002D"/>
  <outline>
    <contour>
      <point x="172" y="743" type="line"/>
      <point x="172" y="854" type="line"/>
      <point x="1057" y="854" type="line"/>
      <point x="1057" y="743" type="line"/>
    </contour>
  </outline>
</glyph>
<glyph name="semicolon" format="1">
  <advance width="706"/>
  <unicode hex="003B"/>
  <outline>
    <contour>
      <point x="300" y="800" type="curve"/>
      <point x="256" y="807"/>
      <point x="223" y="845"/>
      <point x="232" y="897" type="curve" smooth="yes"/>
      <point x="241" y="953"/>
      <point x="298" y="989"/>
      <point x="346" y="983" type="curve" smooth="yes"/>
      <point x="405" y="976"/>
      <point x="423" y="932"/>
      <point x="415" y="886" type="curve"/>
      <point x="408" y="826"/>
      <point x="350" y="794"/>
    </contour>
    <contour>
      <point x="232" y="138" type="curve"/>
      <point x="232" y="174" type="line"/>
      <point x="313" y="279" type="line"/>
      <point x="458" y="244"/>
      <point x="519" y="86"/>
      <point x="520" y="-29" type="curve" smooth="yes"/>
      <point x="522" y="-255"/>
      <point x="356" y="-416"/>
      <point x="211" y="-475" type="curve"/>
      <point x="176" y="-431" type="line"/>
      <point x="176" y="-407" type="line"/>
      <point x="270" y="-374"/>
      <point x="380" y="-240"/>
      <point x="380" y="-88" type="curve" smooth="yes"/>
      <point x="380" y="34"/>
      <point x="307" y="127"/>
    </contour>
  </outline>
</glyph>
<glyph name="equal" format="1">
  <advance width="1229"/>
  <unicode hex="003D"/>
  <outline>
    <contour>
      <point x="172" y="942" type="line"/>
      <point x="172" y="1053" type="line"/>
      <point x="1057" y="1053" type="line"/>
      <point x="1057" y="942" type="line"/>
    </contour>
    <contour>
      <point x="172" y="534" type="line"/>
      <point x="172" y="646" type="line"/>
      <point x="1057" y="646" type="line"/>
      <point x="1057" y="534" type="line"/>
    </contour>
  </outline>
</glyph>
<glyph name="C" format="1">
  <advance width="1410"/>
  <unicode hex="0043"/>
  <outline>
    <contour>
      <point x="87" y="731" type="curve" smooth="yes"/>
      <point x="86" y="1240"/>
      <point x="466" y="1567"/>
      <point x="893" y="1567" type="curve" smooth="yes"/>
      <point x="1086" y="1567"/>
      <point x="1222" y="1515"/>
      <point x="1309" y="1496" type="curve"/>
      <point x="1294" y="1220" type="line"/>
      <point x="1213" y="1220" type="line"/>
      <point x="1175" y="1400" type="line"/>
      <point x="1093" y="1452"/>
      <point x="988" y="1478"/>
      <point x="849" y="1478" type="curve" smooth="yes"/>
      <point x="536" y="1478"/>
      <point x="240" y="1227"/>
      <point x="240" y="778" type="curve" smooth="yes"/>
      <point x="240" y="389"/>
      <point x="453" y="51"/>
      <point x="848" y="55" type="curve" smooth="yes"/>
      <point x="1010" y="56"/>
      <point x="1139" y="104"/>
      <point x="1198" y="166" type="curve"/>
      <point x="1242" y="335" type="line"/>
      <point x="1262" y="335"/>
      <point x="1290" y="334"/>
      <point x="1310" y="334" type="curve"/>
      <point x="1310" y="63" type="line"/>
      <point x="1215" y="59"/>
      <point x="1088" y="-28"/>
      <point x="802" y="-28" type="curve" smooth="yes"/>
      <point x="389" y="-28"/>
      <point x="87" y="287"/>
    </contour>
  </outline>
</glyph>
<glyph name="P" format="1">
  <advance width="1296"/>
  <unicode hex="0050"/>
  <outline>
    <contour>
      <point x="86" y="0" type="line"/>
      <point x="86" y="67" type="line"/>
      <point x="287" y="92" type="line"/>
      <point x="287" y="1454" type="line"/>
      <point x="108" y="1469" type="line"/>
      <point x="108" y="1553" type="line"/>
      <point x="358" y="1553" type="line" smooth="yes"/>
      <point x="438" y="1553"/>
      <point x="581" y="1566"/>
      <point x="714" y="1566" type="curve" smooth="yes"/>
      <point x="1021" y="1566"/>
      <point x="1236" y="1459"/>
      <point x="1236" y="1100" type="curve" smooth="yes"/>
      <point x="1236" y="774"/>
      <point x="951" y="592"/>
      <point x="657" y="594" type="curve" smooth="yes"/>
      <point x="547" y="594"/>
      <point x="478" y="596"/>
      <point x="435" y="592" type="curve"/>
      <point x="435" y="92" type="line"/>
      <point x="711" y="67" type="line"/>
      <point x="711" y="0" type="line"/>
    </contour>
    <contour>
      <point x="435" y="685" type="line"/>
      <point x="509" y="673"/>
      <point x="592" y="673"/>
      <point x="654" y="674" type="curve" smooth="yes"/>
      <point x="895" y="676"/>
      <point x="1087" y="785"/>
      <point x="1087" y="1098" type="curve" smooth="yes"/>
      <point x="1087" y="1358"/>
      <point x="945" y="1489"/>
      <point x="653" y="1480" type="curve" smooth="yes"/>
      <point x="588" y="1478"/>
      <point x="495" y="1476"/>
      <point x="435" y="1461" type="curve"/>
    </contour>
  </outline>
</glyph>
<glyph name="Q" format="1">
  <advance width="1554"/>
  <unicode hex="0051"/>
  <outline>
    <contour>
      <point x="87" y="755" type="curve" smooth="yes"/>
      <point x="97" y="1277"/>
      <point x="418" y="1559"/>
      <point x="798" y="1566" type="curve" smooth="yes"/>
      <point x="1206" y="1574"/>
      <point x="1469" y="1248"/>
      <point x="1460" y="791" type="curve" smooth="yes"/>
      <point x="1451" y="330"/>
      <point x="1209" y="49"/>
      <point x="894" y="-14" type="curve"/>
      <point x="946" y="-168"/>
      <point x="1111" y="-228"/>
      <point x="1266" y="-228" type="curve" smooth="yes"/>
      <point x="1333" y="-228"/>
      <point x="1399" y="-213"/>
      <point x="1433" y="-187" type="curve"/>
      <point x="1448" y="-284" type="line"/>
      <point x="1424" y="-321"/>
      <point x="1330" y="-354"/>
      <point x="1218" y="-354" type="curve" smooth="yes"/>
      <point x="1029" y="-354"/>
      <point x="865" y="-265"/>
      <point x="806" y="-26" type="curve"/>
      <point x="770" y="-28" type="line"/>
      <point x="356" y="-37"/>
      <point x="78" y="291"/>
    </contour>
    <contour>
      <point x="785" y="55" type="curve" smooth="yes"/>
      <point x="1091" y="55"/>
      <point x="1299" y="337"/>
      <point x="1299" y="790" type="curve" smooth="yes"/>
      <point x="1299" y="1173"/>
      <point x="1114" y="1483"/>
      <point x="783" y="1483" type="curve" smooth="yes"/>
      <point x="473" y="1483"/>
      <point x="249" y="1219"/>
      <point x="249" y="756" type="curve" smooth="yes"/>
      <point x="249" y="361"/>
      <point x="453" y="55"/>
    </contour>
  </outline>
</glyph>
<glyph name="X" format="1">
  <advance width="1420"/>
  <unicode hex="0058"/>
  <outline>
    <contour>
      <point x="15" y="0" type="line"/>
      <point x="15" y="67" type="line"/>
      <point x="193" y="91" type="line"/>
      <point x="637" y="790" type="line"/>
      <point x="214" y="1463" type="line"/>
      <point x="55" y="1477" type="line"/>
      <point x="55" y="1553" type="line"/>
      <point x="584" y="1553" type="line"/>
      <point x="584" y="1476" type="line"/>
      <point x="391" y="1462" type="line"/>
      <point x="736" y="874" type="line"/>
      <point x="1086" y="1462" type="line"/>
      <point x="914" y="1477" type="line"/>
      <point x="914" y="1553" type="line"/>
      <point x="1373" y="1553" type="line"/>
      <point x="1373" y="1477" type="line"/>
      <point x="1223" y="1463" type="line"/>
      <point x="791" y="810" type="line"/>
      <point x="1229" y="91" type="line"/>
      <point x="1408" y="67" type="line"/>
      <point x="1408" y="0" type="line"/>
      <point x="859" y="0" type="line"/>
      <point x="859" y="68" type="line"/>
      <point x="1061" y="91" type="line"/>
      <point x="687" y="713" type="line"/>
      <point x="333" y="90" type="line"/>
      <point x="535" y="67" type="line"/>
      <point x="535" y="0" type="line"/>
    </contour>
  </outline>
</glyph>
<glyph name="bracketleft" format="1">
  <advance width="855"/>
  <unicode hex="005B"/>
  <outline>
    <contour>
      <point x="200" y="27" type="curve" smooth="yes"/>
      <point x="200" y="1488" type="line" smooth="yes"/>
      <point x="200" y="1672"/>
      <point x="226" y="1709"/>
      <point x="365" y="1709" type="curve" smooth="yes"/>
      <point x="454" y="1709"/>
      <point x="540" y="1692"/>
      <point x="617" y="1676" type="curve"/>
      <point x="617" y="1656"/>
      <point x="616" y="1629"/>
      <point x="616" y="1609" type="curve"/>
      <point x="325" y="1609" type="line"/>
      <point x="325" y="-75" type="line"/>
      <point x="616" y="-77" type="line"/>
      <point x="616" y="-96"/>
      <point x="617" y="-124"/>
      <point x="617" y="-143" type="curve"/>
      <point x="530" y="-163"/>
      <point x="442" y="-178"/>
      <point x="346" y="-178" type="curve" smooth="yes"/>
      <point x="226" y="-178"/>
      <point x="200" y="-136"/>
    </contour>
  </outline>
</glyph>
<glyph name="b" format="1">
  <advance width="1264"/>
  <unicode hex="0062"/>
  <outline>
    <contour>
      <point x="215" y="50" type="curve"/>
      <point x="215" y="1500" type="line"/>
      <point x="44" y="1525" type="line"/>
      <point x="44" y="1593" type="line"/>
      <point x="324" y="1623" type="line"/>
      <point x="359" y="1606" type="line"/>
      <point x="359" y="1020" type="line"/>
      <point x="438" y="1083"/>
      <point x="557" y="1153"/>
      <point x="712" y="1153" type="curve" smooth="yes"/>
      <point x="939" y="1153"/>
      <point x="1158" y="1004"/>
      <point x="1158" y="605" type="curve" smooth="yes"/>
      <point x="1158" y="254"/>
      <point x="929" y="-28"/>
      <point x="592" y="-28" type="curve" smooth="yes"/>
      <point x="404" y="-28"/>
      <point x="243" y="21"/>
    </contour>
    <contour>
      <point x="359" y="134" type="line"/>
      <point x="380" y="78"/>
      <point x="495" y="55"/>
      <point x="610" y="55" type="curve" smooth="yes"/>
      <point x="813" y="55"/>
      <point x="1011" y="222"/>
      <point x="1014" y="570" type="curve" smooth="yes"/>
      <point x="1018" y="922"/>
      <point x="840" y="1046"/>
      <point x="654" y="1046" type="curve" smooth="yes"/>
      <point x="539" y="1046"/>
      <point x="423" y="998"/>
      <point x="359" y="937" type="curve"/>
    </contour>
  </outline>
</glyph>
<glyph name="c" format="1">
  <advance width="1051"/>
  <unicode hex="0063"/>
  <outline>
    <contour>
      <point x="106" y="538" type="curve" smooth="yes"/>
      <point x="104" y="905"/>
      <point x="342" y="1137"/>
      <point x="648" y="1149" type="curve" smooth="yes"/>
      <point x="758" y="1153"/>
      <point x="885" y="1134"/>
      <point x="937" y="1099" type="curve"/>
      <point x="937" y="885" type="line"/>
      <point x="863" y="885" type="line"/>
      <point x="822" y="1013" type="line"/>
      <point x="776" y="1049"/>
      <point x="704" y="1059"/>
      <point x="636" y="1059" type="curve" smooth="yes"/>
      <point x="429" y="1059"/>
      <point x="248" y="901"/>
      <point x="246" y="607" type="curve" smooth="yes"/>
      <point x="243" y="227"/>
      <point x="445" y="84"/>
      <point x="639" y="84" type="curve" smooth="yes"/>
      <point x="729" y="84"/>
      <point x="877" y="112"/>
      <point x="940" y="160" type="curve"/>
      <point x="967" y="88" type="line"/>
      <point x="889" y="19"/>
      <point x="733" y="-21"/>
      <point x="582" y="-21" type="curve" smooth="yes"/>
      <point x="277" y="-21"/>
      <point x="108" y="217"/>
    </contour>
  </outline>
</glyph>
<glyph name="g" format="1">
  <advance width="1203"/>
  <unicode hex="0067"/>
  <outline>
    <contour>
      <point x="127" y="-240" type="curve" smooth="yes"/>
      <point x="127" y="-111"/>
      <point x="230" y="-3"/>
      <point x="300" y="40" type="curve"/>
      <point x="196" y="81"/>
      <point x="199" y="152"/>
      <point x="199" y="207" type="curve" smooth="yes"/>
      <point x="199" y="260"/>
      <point x="240" y="368"/>
      <point x="317" y="440" type="curve"/>
      <point x="211" y="499"/>
      <point x="143" y="603"/>
      <point x="143" y="754" type="curve" smooth="yes"/>
      <point x="143" y="1027"/>
      <point x="368" y="1156"/>
      <point x="599" y="1161" type="curve" smooth="yes"/>
      <point x="706" y="1163"/>
      <point x="805" y="1140"/>
      <point x="880" y="1088" type="curve"/>
      <point x="909" y="1115"/>
      <point x="964" y="1133"/>
      <point x="1057" y="1133" type="curve" smooth="yes"/>
      <point x="1176" y="1133" type="line"/>
      <point x="1176" y="1016" type="line"/>
      <point x="1171" y="1016"/>
      <point x="1047" y="1016"/>
      <point x="954" y="1017" type="curve"/>
      <point x="995" y="960"/>
      <point x="1020" y="885"/>
      <point x="1020" y="791" type="curve" smooth="yes"/>
      <point x="1020" y="529"/>
      <point x="812" y="381"/>
      <point x="575" y="381" type="curve" smooth="yes"/>
      <point x="498" y="381"/>
      <point x="427" y="393"/>
      <point x="365" y="418" type="curve"/>
      <point x="335" y="371"/>
      <point x="329" y="302"/>
      <point x="329" y="262" type="curve" smooth="yes"/>
      <point x="329" y="169"/>
      <point x="371" y="135"/>
      <point x="482" y="130" type="curve"/>
      <point x="522" y="126"/>
      <point x="655" y="126"/>
      <point x="733" y="126" type="curve" smooth="yes"/>
      <point x="1107" y="126"/>
      <point x="1133" y="-48"/>
      <point x="1133" y="-163" type="curve" smooth="yes"/>
      <point x="1133" y="-392"/>
      <point x="921" y="-531"/>
      <point x="614" y="-531" type="curve" smooth="yes"/>
      <point x="363" y="-531"/>
      <point x="127" y="-460"/>
    </contour>
    <contour>
      <point x="601" y="465" type="curve" smooth="yes"/>
      <point x="773" y="465"/>
      <point x="878" y="563"/>
      <point x="878" y="765" type="curve" smooth="yes"/>
      <point x="878" y="980"/>
      <point x="772" y="1079"/>
      <point x="575" y="1079" type="curve" smooth="yes"/>
      <point x="421" y="1079"/>
      <point x="285" y="997"/>
      <point x="285" y="779" type="curve" smooth="yes"/>
      <point x="285" y="599"/>
      <point x="384" y="465"/>
    </contour>
    <contour>
      <point x="268" y="-192" type="curve" smooth="yes"/>
      <point x="268" y="-395"/>
      <point x="473" y="-443"/>
      <point x="634" y="-443" type="curve" smooth="yes"/>
      <point x="846" y="-443"/>
      <point x="1015" y="-371"/>
      <point x="1015" y="-201" type="curve" smooth="yes"/>
      <point x="1015" y="-78"/>
      <point x="968" y="3"/>
      <point x="704" y="6" type="curve"/>
      <point x="534" y="7" type="line" smooth="yes"/>
      <point x="461" y="7"/>
      <point x="403" y="12"/>
      <point x="358" y="22" type="curve"/>
      <point x="312" y="-21"/>
      <point x="268" y="-84"/>
    </contour>
  </outline>
</glyph>
<glyph name="l" format="1">
  <advance width="698"/>
  <unicode hex="006C"/>
  <outline>
    <contour>
      <point x="137" y="0" type="line"/>
      <point x="137" y="68" type="line"/>
      <point x="304" y="85" type="line"/>
      <point x="304" y="1496" type="line"/>
      <point x="141" y="1520" type="line"/>
      <point x="141" y="1589" type="line"/>
      <point x="413" y="1623" type="line"/>
      <point x="448" y="1602" type="line"/>
      <point x="448" y="84" type="line"/>
      <point x="624" y="68" type="line"/>
      <point x="624" y="0" type="line"/>
    </contour>
  </outline>
</glyph>
<glyph name="m" format="1">
  <advance width="2070"/>
  <unicode hex="006D"/>
  <outline>
    <contour>
      <point x="139" y="0" type="line"/>
      <point x="139" y="67" type="line"/>
      <point x="281" y="86" type="line"/>
      <point x="281" y="968" type="line"/>
      <point x="134" y="1021" type="line"/>
      <point x="134" y="1073" type="line"/>
      <point x="372" y="1133" type="line"/>
      <point x="408" y="1114" type="line"/>
      <point x="408" y="976" type="line"/>
      <point x="501" y="1051"/>
      <point x="689" y="1136"/>
      <point x="828" y="1139" type="curve" smooth="yes"/>
      <point x="972" y="1142"/>
      <point x="1055" y="1101"/>
      <point x="1101" y="999" type="curve"/>
      <point x="1190" y="1067"/>
      <point x="1379" y="1135"/>
      <point x="1510" y="1139" type="curve" smooth="yes"/>
      <point x="1759" y="1147"/>
      <point x="1843" y="1019"/>
      <point x="1843" y="661" type="curve" smooth="yes"/>
      <point x="1843" y="85" type="line"/>
      <point x="2012" y="67" type="line"/>
      <point x="2012" y="0" type="line"/>
      <point x="1556" y="0" type="line"/>
      <point x="1556" y="67" type="line"/>
      <point x="1699" y="85" type="line"/>
      <point x="1699" y="636" type="line" smooth="yes"/>
      <point x="1699" y="910"/>
      <point x="1661" y="1036"/>
      <point x="1442" y="1030" type="curve" smooth="yes"/>
      <point x="1336" y="1027"/>
      <point x="1215" y="982"/>
      <point x="1127" y="931" type="curve"/>
      <point x="1142" y="868"/>
      <point x="1151" y="771"/>
      <point x="1151" y="671" type="curve" smooth="yes"/>
      <point x="1151" y="85" type="line"/>
      <point x="1309" y="67" type="line"/>
      <point x="1309" y="0" type="line"/>
      <point x="854" y="0" type="line"/>
      <point x="854" y="67" type="line"/>
      <point x="1007" y="86" type="line"/>
      <point x="1007" y="655" type="line" smooth="yes"/>
      <point x="1007" y="921"/>
      <point x="972" y="1035"/>
      <point x="760" y="1029" type="curve" smooth="yes"/>
      <point x="661" y="1027"/>
      <point x="528" y="976"/>
      <point x="427" y="907" type="curve"/>
      <point x="427" y="650" type="line" smooth="yes"/>
      <point x="427" y="515"/>
      <point x="426" y="239"/>
      <point x="426" y="85" type="curve"/>
      <point x="584" y="67" type="line"/>
      <point x="584" y="0" type="line"/>
    </contour>
  </outline>
</glyph>
<glyph name="braceright" format="1">
  <advance width="961"/>
  <unicode hex="007D"/>
  <outline>
    <contour>
      <point x="199" y="-75" type="curve"/>
      <point x="490" y="-75" type="line"/>
      <point x="490" y="573" type="line" smooth="yes"/>
      <point x="490" y="617"/>
      <point x="516" y="651"/>
      <point x="555" y="681" type="curve"/>
      <point x="608" y="720"/>
      <point x="661" y="747"/>
      <point x="725" y="776" type="curve"/>
      <point x="668" y="803"/>
      <point x="620" y="823"/>
      <point x="569" y="854" type="curve" smooth="yes"/>
      <point x="522" y="883"/>
      <point x="490" y="916"/>
      <point x="490" y="969" type="curve" smooth="yes"/>
      <point x="490" y="1609" type="line"/>
      <point x="199" y="1609" type="line"/>
      <point x="199" y="1629"/>
      <point x="198" y="1656"/>
      <point x="198" y="1676" type="curve"/>
      <point x="278" y="1692"/>
      <point x="341" y="1710"/>
      <point x="450" y="1710" type="curve" smooth="yes"/>
      <point x="590" y="1710"/>
      <point x="614" y="1672"/>
      <point x="614" y="1490" type="curve" smooth="yes"/>
      <point x="614" y="966" type="line" smooth="yes"/>
      <point x="614" y="912"/>
      <point x="783" y="851"/>
      <point x="871" y="826" type="curve"/>
      <point x="871" y="729" type="line"/>
      <point x="782" y="704"/>
      <point x="614" y="628"/>
      <point x="614" y="576" type="curve" smooth="yes"/>
      <point x="614" y="44" type="line" smooth="yes"/>
      <point x="614" y="-140"/>
      <point x="589" y="-178"/>
      <point x="463" y="-178" type="curve" smooth="yes"/>
      <point x="354" y="-178"/>
      <point x="284" y="-162"/>
      <point x="198" y="-143" type="curve"/>
      <point x="198" y="-124"/>
      <point x="199" y="-95"/>
    </contour>
  </outline>
</glyph>
<glyph name="exclamdown" format="1">
  <advance width="713"/>
  <unicode hex="00A1"/>
  <outline>
    <contour>
      <point x="330" y="1242" type="curve"/>
      <point x="287" y="1249"/>
      <point x="254" y="1287"/>
      <point x="262" y="1339" type="curve"/>
      <point x="272" y="1395"/>
      <point x="329" y="1431"/>
      <point x="377" y="1425" type="curve" smooth="yes"/>
      <point x="436" y="1418"/>
      <point x="454" y="1374"/>
      <point x="445" y="1328" type="curve"/>
      <point x="438" y="1268"/>
      <point x="381" y="1236"/>
    </contour>
    <contour>
      <point x="247" y="-398" type="line"/>
      <point x="300" y="955" type="line"/>
      <point x="391" y="955" type="line"/>
      <point x="436" y="-398" type="line"/>
    </contour>
  </outline>
</glyph>
<glyph name="sterling" format="1">
  <advance width="1441"/>
  <unicode hex="00A3"/>
  <outline>
    <contour>
      <point x="89" y="43" type="curve" smooth="yes"/>
      <point x="89" y="107"/>
      <point x="193" y="173"/>
      <point x="328" y="165" type="curve"/>
      <point x="386" y="224"/>
      <point x="437" y="375"/>
      <point x="437" y="507" type="curve" smooth="yes"/>
      <point x="437" y="763" type="line"/>
      <point x="238" y="763" type="line"/>
      <point x="238" y="874" type="line"/>
      <point x="437" y="874" type="line"/>
      <point x="437" y="986" type="line" smooth="yes"/>
      <point x="437" y="1311"/>
      <point x="627" y="1556"/>
      <point x="913" y="1561" type="curve" smooth="yes"/>
      <point x="1031" y="1564"/>
      <point x="1114" y="1538"/>
      <point x="1183" y="1478" type="curve"/>
      <point x="1111" y="1342" type="line"/>
      <point x="1100" y="1361"/>
      <point x="1000" y="1468"/>
      <point x="845" y="1466" type="curve"/>
      <point x="714" y="1463"/>
      <point x="581" y="1374"/>
      <point x="581" y="989" type="curve" smooth="yes"/>
      <point x="581" y="874" type="line"/>
      <point x="935" y="874" type="line"/>
      <point x="935" y="763" type="line"/>
      <point x="582" y="763" type="line"/>
      <point x="582" y="676" type="line" smooth="yes"/>
      <point x="582" y="385"/>
      <point x="509" y="255"/>
      <point x="423" y="144" type="curve"/>
      <point x="513" y="141"/>
      <point x="684" y="75"/>
      <point x="810" y="55" type="curve"/>
      <point x="1132" y="10"/>
      <point x="1205" y="166"/>
      <point x="1205" y="302" type="curve" smooth="yes"/>
      <point x="1205" y="372"/>
      <point x="1174" y="437"/>
      <point x="1114" y="478" type="curve"/>
      <point x="1181" y="607" type="line"/>
      <point x="1272" y="566"/>
      <point x="1326" y="483"/>
      <point x="1341" y="372" type="curve" smooth="yes"/>
      <point x="1359" y="240"/>
      <point x="1321" y="-33"/>
      <point x="917" y="-32" type="curve"/>
      <point x="615" y="-43"/>
      <point x="429" y="89"/>
      <point x="344" y="74" type="curve"/>
      <point x="302" y="17"/>
      <point x="237" y="-31"/>
      <point x="172" y="-31" type="curve" smooth="yes"/>
      <point x="141" y="-31"/>
      <point x="89" y="-21"/>
    </contour>
  </outline>
</glyph>
<glyph name="brokenbar" format="1">
  <advance width="873"/>
  <unicode hex="00A6"/>
  <outline>
    <contour>
      <point x="358" y="886" type="line"/>
      <point x="358" y="1780" type="line"/>
      <point x="489" y="1780" type="line"/>
      <point x="489" y="886" type="line"/>
    </contour>
    <contour>
      <point x="358" y="-186" type="line"/>
      <point x="358" y="708" type="line"/>
      <point x="489" y="708" type="line"/>
      <point x="489" y="-186" type="line"/>
    </contour>
  </outline>
</glyph>
<glyph name="section" format="1">
  <advance width="1327"/>
  <unicode hex="00A7"/>
  <outline>
    <contour>
      <point x="180" y="103" type="line"/>
      <point x="250" y="103" type="line"/>
      <point x="299" y="-97" type="line"/>
      <point x="393" y="-188"/>
      <point x="534" y="-199"/>
      <point x="652" y="-199" type="curve" smooth="yes"/>
      <point x="813" y="-199"/>
      <point x="1006" y="-135"/>
      <point x="1006" y="64" type="curve" smooth="yes"/>
      <point x="1005" y="431"/>
      <point x="191" y="389"/>
      <point x="191" y="812" type="curve" smooth="yes"/>
      <point x="191" y="934"/>
      <point x="242" y="1052"/>
      <point x="311" y="1123" type="curve"/>
      <point x="247" y="1182"/>
      <point x="206" y="1255"/>
      <point x="206" y="1351" type="curve" smooth="yes"/>
      <point x="206" y="1642"/>
      <point x="500" y="1757"/>
      <point x="690" y="1757" type="curve" smooth="yes"/>
      <point x="898" y="1757"/>
      <point x="1024" y="1712"/>
      <point x="1084" y="1677" type="curve"/>
      <point x="1084" y="1410" type="line"/>
      <point x="1015" y="1410" type="line"/>
      <point x="957" y="1609" type="line"/>
      <point x="906" y="1658"/>
      <point x="792" y="1676"/>
      <point x="680" y="1676" type="curve" smooth="yes"/>
      <point x="551" y="1676"/>
      <point x="344" y="1602"/>
      <point x="345" y="1379" type="curve"/>
      <point x="345" y="1023"/>
      <point x="1160" y="1066"/>
      <point x="1160" y="637" type="curve"/>
      <point x="1161" y="515"/>
      <point x="1121" y="391"/>
      <point x="1060" y="313" type="curve"/>
      <point x="1112" y="259"/>
      <point x="1145" y="192"/>
      <point x="1145" y="108" type="curve" smooth="yes"/>
      <point x="1145" y="-170"/>
      <point x="906" y="-283"/>
      <point x="633" y="-283" type="curve" smooth="yes"/>
      <point x="435" y="-283"/>
      <point x="236" y="-231"/>
      <point x="180" y="-196" type="curve"/>
    </contour>
    <contour>
      <point x="329" y="840" type="curve" smooth="yes"/>
      <point x="329" y="592"/>
      <point x="732" y="540"/>
      <point x="971" y="384" type="curve"/>
      <point x="1001" y="441"/>
      <point x="1022" y="520"/>
      <point x="1021" y="593" type="curve"/>
      <point x="1021" y="848"/>
      <point x="636" y="909"/>
      <point x="395" y="1060" type="curve"/>
      <point x="356" y="1004"/>
      <point x="329" y="923"/>
    </contour>
  </outline>
</glyph>
<glyph name="macron" format="1">
  <advance width="909"/>
  <unicode hex="00AF"/>
  <outline>
    <contour>
      <point x="195" y="1472" type="line"/>
      <point x="195" y="1589" type="line"/>
      <point x="726" y="1589" type="line"/>
      <point x="726" y="1472" type="line"/>
    </contour>
  </outline>
</glyph>
<glyph name="plusminus" format="1">
  <advance width="1258"/>
  <unicode hex="00B1"/>
  <outline>
    <contour>
      <point x="569" y="321" type="line"/>
      <point x="569" y="579" type="line"/>
      <point x="575" y="744" type="line"/>
      <point x="414" y="738" type="line"/>
      <point x="172" y="738" type="line"/>
      <point x="172" y="856" type="line"/>
      <point x="414" y="856" type="line"/>
      <point x="575" y="846" type="line"/>
      <point x="569" y="1012" type="line"/>
      <point x="569" y="1260" type="line"/>
      <point x="689" y="1260" type="line"/>
      <point x="689" y="1012" type="line"/>
      <point x="680" y="846" type="line"/>
      <point x="824" y="856" type="line"/>
      <point x="1085" y="856" type="line"/>
      <point x="1085" y="738" type="line"/>
      <point x="824" y="738" type="line"/>
      <point x="680" y="745" type="line"/>
      <point x="689" y="579" type="line"/>
      <point x="689" y="321" type="line"/>
    </contour>
    <contour>
      <point x="181" y="66" type="line"/>
      <point x="181" y="177" type="line"/>
      <point x="1075" y="177" type="line"/>
      <point x="1075" y="66" type="line"/>
    </contour>
  </outline>
</glyph>
<glyph name="twosuperior" format="1">
  <advance width="1256"/>
  <unicode hex="00B2"/>
  <outline>
    <contour>
      <point x="181" y="720" type="line"/>
      <point x="148" y="806" type="line"/>
      <point x="394" y="930"/>
      <point x="812" y="1201"/>
      <point x="812" y="1408" type="curve" smooth="yes"/>
      <point x="812" y="1552"/>
      <point x="704" y="1617"/>
      <point x="567" y="1617" type="curve" smooth="yes"/>
      <point x="443" y="1617"/>
      <point x="283" y="1547"/>
      <point x="201" y="1435" type="curve"/>
      <point x="143" y="1503" type="line"/>
      <point x="211" y="1609"/>
      <point x="395" y="1729"/>
      <point x="599" y="1729" type="curve" smooth="yes"/>
      <point x="877" y="1729"/>
      <point x="977" y="1576"/>
      <point x="975" y="1453" type="curve"/>
      <point x="973" y="1199"/>
      <point x="695" y="1004"/>
      <point x="330" y="811" type="curve"/>
      <point x="914" y="841" type="line"/>
      <point x="1020" y="1013" type="line"/>
      <point x="1099" y="981" type="line"/>
      <point x="1039" y="720" type="line"/>
    </contour>
  </outline>
</glyph>
<glyph name="paragraph" format="1">
  <advance width="1346"/>
  <unicode hex="00B6"/>
  <outline>
    <contour>
      <point x="356" y="0" type="line"/>
      <point x="356" y="67" type="line"/>
      <point x="555" y="91" type="line"/>
      <point x="555" y="683" type="line"/>
      <point x="274" y="683"/>
      <point x="118" y="822"/>
      <point x="118" y="1134" type="curve" smooth="yes"/>
      <point x="118" y="1395"/>
      <point x="276" y="1570"/>
      <point x="634" y="1570" type="curve" smooth="yes"/>
      <point x="725" y="1570"/>
      <point x="951" y="1556"/>
      <point x="1063" y="1553" type="curve"/>
      <point x="1234" y="1553" type="line"/>
      <point x="1234" y="1475" type="line"/>
      <point x="1062" y="1450" type="line"/>
      <point x="1062" y="91" type="line"/>
      <point x="1217" y="67" type="line"/>
      <point x="1217" y="0" type="line"/>
      <point x="934" y="0" type="line"/>
      <point x="932" y="1450" type="line"/>
      <point x="910" y="1451"/>
      <point x="709" y="1456"/>
      <point x="681" y="1454" type="curve"/>
      <point x="681" y="0" type="line"/>
    </contour>
  </outline>
</glyph>
<glyph name="onesuperior" format="1">
  <advance width="1085"/>
  <unicode hex="00B9"/>
  <outline>
    <contour>
      <point x="215" y="718" type="line"/>
      <point x="215" y="786" type="line"/>
      <point x="506" y="807" type="line"/>
      <point x="506" y="1546" type="line"/>
      <point x="410" y="1510"/>
      <point x="313" y="1473"/>
      <point x="212" y="1448" type="curve"/>
      <point x="197" y="1528" type="line"/>
      <point x="318" y="1563"/>
      <point x="556" y="1682"/>
      <point x="603" y="1724" type="curve"/>
      <point x="653" y="1709" type="line"/>
      <point x="651" y="808" type="line"/>
      <point x="926" y="786" type="line"/>
      <point x="926" y="718" type="line"/>
    </contour>
  </outline>
</glyph>
<glyph name="ordmasculine" format="1">
  <advance width="998"/>
  <unicode hex="00BA"/>
  <outline>
    <contour>
      <point x="486" y="735" type="curve" smooth="yes"/>
      <point x="261" y="734"/>
      <point x="92" y="891"/>
      <point x="96" y="1165" type="curve" smooth="yes"/>
      <point x="101" y="1466"/>
      <point x="319" y="1593"/>
      <point x="510" y="1593" type="curve" smooth="yes"/>
      <point x="758" y="1593"/>
      <point x="905" y="1431"/>
      <point x="902" y="1155" type="curve" smooth="yes"/>
      <point x="899" y="857"/>
      <point x="671" y="736"/>
    </contour>
    <contour>
      <point x="487" y="815" type="curve" smooth="yes"/>
      <point x="663" y="816"/>
      <point x="756" y="913"/>
      <point x="756" y="1143" type="curve" smooth="yes"/>
      <point x="756" y="1367"/>
      <point x="672" y="1514"/>
      <point x="501" y="1513" type="curve" smooth="yes"/>
      <point x="329" y="1512"/>
      <point x="242" y="1382"/>
      <point x="242" y="1175" type="curve" smooth="yes"/>
      <point x="241" y="954"/>
      <point x="342" y="815"/>
    </contour>
  </outline>
</glyph>
<glyph name="guillemotright" format="1">
  <advance width="1897"/>
  <unicode hex="00BB"/>
  <outline>
    <contour>
      <point x="964" y="230" type="line"/>
      <point x="1513" y="621" type="line"/>
      <point x="964" y="1004" type="line"/>
      <point x="1005" y="1075" type="line"/>
      <point x="1653" y="688" type="line"/>
      <point x="1653" y="562" type="line"/>
      <point x="1005" y="163" type="line"/>
    </contour>
    <contour>
      <point x="296" y="163" type="line"/>
      <point x="256" y="230" type="line"/>
      <point x="805" y="621" type="line"/>
      <point x="256" y="1004" type="line"/>
      <point x="296" y="1075" type="line"/>
      <point x="944" y="688" type="line"/>
      <point x="944" y="562" type="line"/>
    </contour>
  </outline>
</glyph>
<glyph name="onequarter" format="1">
  <advance width="2626"/>
  <unicode hex="00BC"/>
  <outline>
    <contour>
      <point x="809" y="-313" type="line"/>
      <point x="1537" y="1881" type="line"/>
      <point x="1637" y="1852" type="line"/>
      <point x="912" y="-343" type="line"/>
    </contour>
    <contour>
      <point x="245" y="718" type="line"/>
      <point x="245" y="786" type="line"/>
      <point x="536" y="807" type="line"/>
      <point x="536" y="1546" type="line"/>
      <point x="440" y="1510"/>
      <point x="343" y="1473"/>
      <point x="242" y="1448" type="curve"/>
      <point x="227" y="1528" type="line"/>
      <point x="348" y="1563"/>
      <point x="586" y="1682"/>
      <point x="633" y="1724" type="curve"/>
      <point x="683" y="1709" type="line"/>
      <point x="681" y="808" type="line"/>
      <point x="956" y="786" type="line"/>
      <point x="956" y="718" type="line"/>
    </contour>
    <contour>
      <point x="1387" y="260" type="line"/>
      <point x="1953" y="1115" type="line"/>
      <point x="2007" y="1116" type="line"/>
      <point x="2088" y="1042" type="line"/>
      <point x="1566" y="334" type="line"/>
      <point x="1519" y="266" type="line"/>
      <point x="1999" y="292" type="line"/>
      <point x="2001" y="583" type="line"/>
      <point x="2133" y="602" type="line"/>
      <point x="2133" y="299" type="line"/>
      <point x="2415" y="315" type="line"/>
      <point x="2418" y="186" type="line"/>
      <point x="2133" y="186" type="line"/>
      <point x="2133" y="-180" type="line"/>
      <point x="1996" y="-180" type="line"/>
      <point x="1998" y="186" type="line"/>
      <point x="1425" y="186" type="line"/>
    </contour>
  </outline>
</glyph>
<glyph name="Adieresis" format="1">
  <advance width="1493"/>
  <unicode hex="00C4"/>
  <outline>
    <contour>
      <point x="963" y="1689" type="curve" smooth="yes"/>
      <point x="912" y="1689"/>
      <point x="864" y="1726"/>
      <point x="864" y="1784" type="curve" smooth="yes"/>
      <point x="864" y="1847"/>
      <point x="925" y="1897"/>
      <point x="981" y="1897" type="curve" smooth="yes"/>
      <point x="1050" y="1897"/>
      <point x="1080" y="1853"/>
      <point x="1080" y="1801" type="curve" smooth="yes"/>
      <point x="1080" y="1735"/>
      <point x="1022" y="1689"/>
    </contour>
    <contour>
      <point x="506" y="1690" type="curve" smooth="yes"/>
      <point x="455" y="1690"/>
      <point x="407" y="1726"/>
      <point x="407" y="1785" type="curve" smooth="yes"/>
      <point x="407" y="1848"/>
      <point x="468" y="1897"/>
      <point x="524" y="1897" type="curve" smooth="yes"/>
      <point x="592" y="1897"/>
      <point x="623" y="1853"/>
      <point x="623" y="1802" type="curve" smooth="yes"/>
      <point x="623" y="1735"/>
      <point x="565" y="1690"/>
    </contour>
    <contour>
      <point x="2" y="0" type="line"/>
      <point x="2" y="67" type="line"/>
      <point x="148" y="91" type="line"/>
      <point x="686" y="1561" type="line"/>
      <point x="807" y="1561" type="line"/>
      <point x="1330" y="91" type="line"/>
      <point x="1495" y="67" type="line"/>
      <point x="1495" y="0" type="line"/>
      <point x="1007" y="0" type="line"/>
      <point x="1007" y="67" type="line"/>
      <point x="1175" y="91" type="line"/>
      <point x="1048" y="455" type="line"/>
      <point x="404" y="455" type="line"/>
      <point x="278" y="91" type="line"/>
      <point x="452" y="67" type="line"/>
      <point x="452" y="0" type="line"/>
    </contour>
    <contour>
      <point x="435" y="546" type="line"/>
      <point x="1017" y="546" type="line"/>
      <point x="803" y="1159" type="line"/>
      <point x="729" y="1392" type="line"/>
    </contour>
  </outline>
</glyph>
<glyph name="Edieresis" format="1">
  <advance width="1319"/>
  <unicode hex="00CB"/>
  <outline>
    <contour>
      <point x="938" y="1689" type="curve" smooth="yes"/>
      <point x="887" y="1689"/>
      <point x="839" y="1726"/>
      <point x="839" y="1784" type="curve" smooth="yes"/>
      <point x="839" y="1847"/>
      <point x="900" y="1897"/>
      <point x="957" y="1897" type="curve" smooth="yes"/>
      <point x="1025" y="1897"/>
      <point x="1056" y="1853"/>
      <point x="1056" y="1801" type="curve" smooth="yes"/>
      <point x="1056" y="1735"/>
      <point x="997" y="1689"/>
    </contour>
    <contour>
      <point x="481" y="1690" type="curve" smooth="yes"/>
      <point x="430" y="1690"/>
      <point x="382" y="1726"/>
      <point x="382" y="1785" type="curve" smooth="yes"/>
      <point x="382" y="1848"/>
      <point x="443" y="1897"/>
      <point x="499" y="1897" type="curve" smooth="yes"/>
      <point x="568" y="1897"/>
      <point x="599" y="1853"/>
      <point x="599" y="1802" type="curve" smooth="yes"/>
      <point x="599" y="1735"/>
      <point x="540" y="1690"/>
    </contour>
    <contour>
      <point x="102" y="0" type="line"/>
      <point x="102" y="67" type="line"/>
      <point x="282" y="91" type="line"/>
      <point x="282" y="1461" type="line"/>
      <point x="106" y="1477" type="line"/>
      <point x="106" y="1553" type="line"/>
      <point x="1143" y="1553" type="line"/>
      <point x="1172" y="1267" type="line"/>
      <point x="1087" y="1267" type="line"/>
      <point x="1041" y="1461" type="line"/>
      <point x="429" y="1472" type="line"/>
      <point x="429" y="865" type="line"/>
      <point x="837" y="872" type="line"/>
      <point x="863" y="1033" type="line"/>
      <point x="942" y="1033" type="line"/>
      <point x="942" y="609" type="line"/>
      <point x="863" y="609" type="line"/>
      <point x="837" y="776" type="line"/>
      <point x="429" y="782" type="line"/>
      <point x="429" y="84" type="line"/>
      <point x="1087" y="100" type="line"/>
      <point x="1178" y="333" type="line"/>
      <point x="1252" y="315" type="line"/>
      <point x="1207" y="0" type="line"/>
    </contour>
  </outline>
</glyph>
<glyph name="Otilde" format="1">
  <advance width="1554"/>
  <unicode hex="00D5"/>
  <outline>
    <contour>
      <point x="439" y="1701" type="curve"/>
      <point x="397" y="1760" type="line"/>
      <point x="449" y="1848"/>
      <point x="554" y="1920"/>
      <point x="662" y="1920" type="curve" smooth="yes"/>
      <point x="791" y="1920"/>
      <point x="837" y="1775"/>
      <point x="939" y="1775" type="curve" smooth="yes"/>
      <point x="1023" y="1775"/>
      <point x="1086" y="1822"/>
      <point x="1131" y="1873" type="curve"/>
      <point x="1173" y="1813" type="line"/>
      <point x="1122" y="1727"/>
      <point x="1017" y="1653"/>
      <point x="910" y="1653" type="curve" smooth="yes"/>
      <point x="781" y="1653"/>
      <point x="734" y="1800"/>
      <point x="631" y="1800" type="curve" smooth="yes"/>
      <point x="551" y="1800"/>
      <point x="484" y="1752"/>
    </contour>
    <contour>
      <point x="90" y="755" type="curve" smooth="yes"/>
      <point x="100" y="1277"/>
      <point x="422" y="1559"/>
      <point x="801" y="1566" type="curve" smooth="yes"/>
      <point x="1209" y="1574"/>
      <point x="1473" y="1248"/>
      <point x="1464" y="791" type="curve" smooth="yes"/>
      <point x="1454" y="271"/>
      <point x="1147" y="-20"/>
      <point x="774" y="-28" type="curve" smooth="yes"/>
      <point x="359" y="-37"/>
      <point x="81" y="291"/>
    </contour>
    <contour>
      <point x="788" y="55" type="curve" smooth="yes"/>
      <point x="1095" y="55"/>
      <point x="1303" y="337"/>
      <point x="1303" y="790" type="curve" smooth="yes"/>
      <point x="1303" y="1173"/>
      <point x="1118" y="1483"/>
      <point x="786" y="1483" type="curve" smooth="yes"/>
      <point x="476" y="1483"/>
      <point x="252" y="1219"/>
      <point x="252" y="756" type="curve" smooth="yes"/>
      <point x="252" y="361"/>
      <point x="456" y="55"/>
    </contour>
  </outline>
</glyph>
<glyph name="Odieresis" format="1">
  <advance width="1554"/>
  <unicode hex="00D6"/>
  <outline>
    <contour>
      <point x="1010" y="1689" type="curve" smooth="yes"/>
      <point x="959" y="1689"/>
      <point x="911" y="1726"/>
      <point x="911" y="1784" type="curve" smooth="yes"/>
      <point x="911" y="1847"/>
      <point x="972" y="1897"/>
      <point x="1028" y="1897" type="curve" smooth="yes"/>
      <point x="1096" y="1897"/>
      <point x="1127" y="1853"/>
      <point x="1127" y="1801" type="curve" smooth="yes"/>
      <point x="1127" y="1735"/>
      <point x="1069" y="1689"/>
    </contour>
    <contour>
      <point x="552" y="1690" type="curve" smooth="yes"/>
      <point x="501" y="1690"/>
      <point x="453" y="1726"/>
      <point x="453" y="1785" type="curve" smooth="yes"/>
      <point x="453" y="1848"/>
      <point x="515" y="1897"/>
      <point x="571" y="1897" type="curve" smooth="yes"/>
      <point x="639" y="1897"/>
      <point x="670" y="1853"/>
      <point x="670" y="1802" type="curve" smooth="yes"/>
      <point x="670" y="1735"/>
      <point x="611" y="1690"/>
    </contour>
    <contour>
      <point x="90" y="755" type="curve" smooth="yes"/>
      <point x="100" y="1277"/>
      <point x="422" y="1559"/>
      <point x="801" y="1566" type="curve" smooth="yes"/>
      <point x="1209" y="1574"/>
      <point x="1473" y="1248"/>
      <point x="1464" y="791" type="curve" smooth="yes"/>
      <point x="1454" y="271"/>
      <point x="1147" y="-20"/>
      <point x="774" y="-28" type="curve" smooth="yes"/>
      <point x="359" y="-37"/>
      <point x="81" y="291"/>
    </contour>
    <contour>
      <point x="788" y="55" type="curve" smooth="yes"/>
      <point x="1095" y="55"/>
      <point x="1303" y="337"/>
      <point x="1303" y="790" type="curve" smooth="yes"/>
      <point x="1303" y="1173"/>
      <point x="1118" y="1483"/>
      <point x="786" y="1483" type="curve" smooth="yes"/>
      <point x="476" y="1483"/>
      <point x="252" y="1219"/>
      <point x="252" y="756" type="curve" smooth="yes"/>
      <point x="252" y="361"/>
      <point x="456" y="55"/>
    </contour>
  </outline>
</glyph>
<glyph name="Ugrave" format="1">
  <advance width="1576"/>
  <unicode hex="00D9"/>
  <outline>
    <contour>
      <point x="799" y="1608" type="line"/>
      <point x="678" y="1657"/>
      <point x="533" y="1736"/>
      <point x="439" y="1811" type="curve"/>
      <point x="545" y="1920" type="line"/>
      <point x="841" y="1651" type="line"/>
    </contour>
    <contour>
      <point x="186" y="647" type="curve" smooth="yes"/>
      <point x="186" y="1462" type="line"/>
      <point x="33" y="1477" type="line"/>
      <point x="33" y="1553" type="line"/>
      <point x="509" y="1553" type="line"/>
      <point x="509" y="1477" type="line"/>
      <point x="335" y="1461" type="line"/>
      <point x="335" y="642" type="line" smooth="yes"/>
      <point x="335" y="181"/>
      <point x="535" y="52"/>
      <point x="811" y="52" type="curve" smooth="yes"/>
      <point x="1108" y="52"/>
      <point x="1242" y="274"/>
      <point x="1242" y="663" type="curve" smooth="yes"/>
      <point x="1242" y="1460" type="line"/>
      <point x="1069" y="1477" type="line"/>
      <point x="1069" y="1553" type="line"/>
      <point x="1513" y="1553" type="line"/>
      <point x="1513" y="1477" type="line"/>
      <point x="1357" y="1460" type="line"/>
      <point x="1357" y="664" type="line" smooth="yes"/>
      <point x="1357" y="165"/>
      <point x="1124" y="-28"/>
      <point x="782" y="-28" type="curve" smooth="yes"/>
      <point x="358" y="-28"/>
      <point x="186" y="193"/>
    </contour>
  </outline>
</glyph>
<glyph name="Udieresis" format="1">
  <advance width="1576"/>
  <unicode hex="00DC"/>
  <outline>
    <contour>
      <point x="1013" y="1689" type="curve" smooth="yes"/>
      <point x="962" y="1689"/>
      <point x="914" y="1726"/>
      <point x="914" y="1784" type="curve" smooth="yes"/>
      <point x="914" y="1847"/>
      <point x="975" y="1897"/>
      <point x="1032" y="1897" type="curve" smooth="yes"/>
      <point x="1100" y="1897"/>
      <point x="1131" y="1853"/>
      <point x="1131" y="1801" type="curve" smooth="yes"/>
      <point x="1131" y="1735"/>
      <point x="1072" y="1689"/>
    </contour>
    <contour>
      <point x="556" y="1690" type="curve" smooth="yes"/>
      <point x="505" y="1690"/>
      <point x="457" y="1726"/>
      <point x="457" y="1785" type="curve" smooth="yes"/>
      <point x="457" y="1848"/>
      <point x="518" y="1897"/>
      <point x="575" y="1897" type="curve" smooth="yes"/>
      <point x="643" y="1897"/>
      <point x="674" y="1853"/>
      <point x="674" y="1802" type="curve" smooth="yes"/>
      <point x="674" y="1735"/>
      <point x="615" y="1690"/>
    </contour>
    <contour>
      <point x="186" y="647" type="curve" smooth="yes"/>
      <point x="186" y="1462" type="line"/>
      <point x="33" y="1477" type="line"/>
      <point x="33" y="1553" type="line"/>
      <point x="509" y="1553" type="line"/>
      <point x="509" y="1477" type="line"/>
      <point x="335" y="1461" type="line"/>
      <point x="335" y="642" type="line" smooth="yes"/>
      <point x="335" y="181"/>
      <point x="535" y="52"/>
      <point x="811" y="52" type="curve" smooth="yes"/>
      <point x="1108" y="52"/>
      <point x="1242" y="274"/>
      <point x="1242" y="663" type="curve" smooth="yes"/>
      <point x="1242" y="1460" type="line"/>
      <point x="1069" y="1477" type="line"/>
      <point x="1069" y="1553" type="line"/>
      <point x="1513" y="1553" type="line"/>
      <point x="1513" y="1477" type="line"/>
      <point x="1357" y="1460" type="line"/>
      <point x="1357" y="664" type="line" smooth="yes"/>
      <point x="1357" y="165"/>
      <point x="1124" y="-28"/>
      <point x="782" y="-28" type="curve" smooth="yes"/>
      <point x="358" y="-28"/>
      <point x="186" y="193"/>
    </contour>
  </outline>
</glyph>
<glyph name="aacute" format="1">
  <advance width="1145"/>
  <unicode hex="00E1"/>
  <outline>
    <contour>
      <point x="493" y="1343" type="curve"/>
      <point x="450" y="1386" type="line"/>
      <point x="763" y="1770" type="line"/>
      <point x="869" y="1661" type="line"/>
      <point x="807" y="1564"/>
      <point x="614" y="1425"/>
    </contour>
    <contour>
      <point x="111" y="312" type="curve"/>
      <point x="135" y="589"/>
      <point x="550" y="665"/>
      <point x="800" y="665" type="curve"/>
      <point x="800" y="753" type="line" smooth="yes"/>
      <point x="800" y="977"/>
      <point x="688" y="1037"/>
      <point x="505" y="1037" type="curve" smooth="yes"/>
      <point x="403" y="1037"/>
      <point x="259" y="992"/>
      <point x="183" y="947" type="curve"/>
      <point x="154" y="1018" type="line"/>
      <point x="254" y="1099"/>
      <point x="457" y="1139"/>
      <point x="555" y="1139" type="curve" smooth="yes"/>
      <point x="767" y="1139"/>
      <point x="945" y="1066"/>
      <point x="945" y="773" type="curve" smooth="yes"/>
      <point x="943" y="71" type="line"/>
      <point x="1075" y="71" type="line"/>
      <point x="1075" y="16" type="line"/>
      <point x="1036" y="-2"/>
      <point x="971" y="-17"/>
      <point x="902" y="-17" type="curve" smooth="yes"/>
      <point x="856" y="-17"/>
      <point x="808" y="-11"/>
      <point x="808" y="80" type="curve" smooth="yes"/>
      <point x="808" y="120" type="line"/>
      <point x="734" y="36"/>
      <point x="625" y="-22"/>
      <point x="448" y="-22" type="curve" smooth="yes"/>
      <point x="270" y="-22"/>
      <point x="98" y="96"/>
    </contour>
    <contour>
      <point x="258" y="310" type="curve" smooth="yes"/>
      <point x="256" y="145"/>
      <point x="365" y="75"/>
      <point x="521" y="75" type="curve" smooth="yes"/>
      <point x="665" y="75"/>
      <point x="762" y="150"/>
      <point x="799" y="181" type="curve"/>
      <point x="799" y="277"/>
      <point x="799" y="443"/>
      <point x="800" y="584" type="curve"/>
      <point x="583" y="584"/>
      <point x="260" y="527"/>
    </contour>
  </outline>
</glyph>
<glyph name="acircumflex" format="1">
  <advance width="1145"/>
  <unicode hex="00E2"/>
  <outline>
    <contour>
      <point x="278" y="1337" type="line"/>
      <point x="217" y="1373" type="line"/>
      <point x="498" y="1772" type="line"/>
      <point x="640" y="1772" type="line"/>
      <point x="913" y="1374" type="line"/>
      <point x="846" y="1337" type="line"/>
      <point x="569" y="1643" type="line"/>
    </contour>
    <contour>
      <point x="111" y="312" type="curve"/>
      <point x="135" y="589"/>
      <point x="550" y="665"/>
      <point x="800" y="665" type="curve"/>
      <point x="800" y="753" type="line" smooth="yes"/>
      <point x="800" y="977"/>
      <point x="688" y="1037"/>
      <point x="505" y="1037" type="curve" smooth="yes"/>
      <point x="403" y="1037"/>
      <point x="259" y="992"/>
      <point x="183" y="947" type="curve"/>
      <point x="154" y="1018" type="line"/>
      <point x="254" y="1099"/>
      <point x="457" y="1139"/>
      <point x="555" y="1139" type="curve" smooth="yes"/>
      <point x="767" y="1139"/>
      <point x="945" y="1066"/>
      <point x="945" y="773" type="curve" smooth="yes"/>
      <point x="943" y="71" type="line"/>
      <point x="1075" y="71" type="line"/>
      <point x="1075" y="16" type="line"/>
      <point x="1036" y="-2"/>
      <point x="971" y="-17"/>
      <point x="902" y="-17" type="curve" smooth="yes"/>
      <point x="856" y="-17"/>
      <point x="808" y="-11"/>
      <point x="808" y="80" type="curve" smooth="yes"/>
      <point x="808" y="120" type="line"/>
      <point x="734" y="36"/>
      <point x="625" y="-22"/>
      <point x="448" y="-22" type="curve" smooth="yes"/>
      <point x="270" y="-22"/>
      <point x="98" y="96"/>
    </contour>
    <contour>
      <point x="258" y="310" type="curve" smooth="yes"/>
      <point x="256" y="145"/>
      <point x="365" y="75"/>
      <point x="521" y="75" type="curve" smooth="yes"/>
      <point x="665" y="75"/>
      <point x="762" y="150"/>
      <point x="799" y="181" type="curve"/>
      <point x="799" y="277"/>
      <point x="799" y="443"/>
      <point x="800" y="584" type="curve"/>
      <point x="583" y="584"/>
      <point x="260" y="527"/>
    </contour>
  </outline>
</glyph>
<glyph name="atilde" format="1">
  <advance width="1145"/>
  <unicode hex="00E3"/>
  <outline>
    <contour>
      <point x="214" y="1439" type="curve"/>
      <point x="172" y="1498" type="line"/>
      <point x="224" y="1586"/>
      <point x="330" y="1662"/>
      <point x="437" y="1662" type="curve" smooth="yes"/>
      <point x="566" y="1662"/>
      <point x="613" y="1511"/>
      <point x="715" y="1511" type="curve" smooth="yes"/>
      <point x="798" y="1511"/>
      <point x="861" y="1567"/>
      <point x="907" y="1618" type="curve"/>
      <point x="948" y="1559" type="line"/>
      <point x="897" y="1472"/>
      <point x="793" y="1394"/>
      <point x="685" y="1394" type="curve" smooth="yes"/>
      <point x="556" y="1394"/>
      <point x="509" y="1546"/>
      <point x="406" y="1546" type="curve" smooth="yes"/>
      <point x="321" y="1546"/>
      <point x="259" y="1490"/>
    </contour>
    <contour>
      <point x="111" y="312" type="curve"/>
      <point x="135" y="589"/>
      <point x="550" y="665"/>
      <point x="800" y="665" type="curve"/>
      <point x="800" y="753" type="line" smooth="yes"/>
      <point x="800" y="977"/>
      <point x="688" y="1037"/>
      <point x="505" y="1037" type="curve" smooth="yes"/>
      <point x="403" y="1037"/>
      <point x="259" y="992"/>
      <point x="183" y="947" type="curve"/>
      <point x="154" y="1018" type="line"/>
      <point x="254" y="1099"/>
      <point x="457" y="1139"/>
      <point x="555" y="1139" type="curve" smooth="yes"/>
      <point x="767" y="1139"/>
      <point x="945" y="1066"/>
      <point x="945" y="773" type="curve" smooth="yes"/>
      <point x="943" y="71" type="line"/>
      <point x="1075" y="71" type="line"/>
      <point x="1075" y="16" type="line"/>
      <point x="1036" y="-2"/>
      <point x="971" y="-17"/>
      <point x="902" y="-17" type="curve" smooth="yes"/>
      <point x="856" y="-17"/>
      <point x="808" y="-11"/>
      <point x="808" y="80" type="curve" smooth="yes"/>
      <point x="808" y="120" type="line"/>
      <point x="734" y="36"/>
      <point x="625" y="-22"/>
      <point x="448" y="-22" type="curve" smooth="yes"/>
      <point x="270" y="-22"/>
      <point x="98" y="96"/>
    </contour>
    <contour>
      <point x="258" y="310" type="curve" smooth="yes"/>
      <point x="256" y="145"/>
      <point x="365" y="75"/>
      <point x="521" y="75" type="curve" smooth="yes"/>
      <point x="665" y="75"/>
      <point x="762" y="150"/>
      <point x="799" y="181" type="curve"/>
      <point x="799" y="277"/>
      <point x="799" y="443"/>
      <point x="800" y="584" type="curve"/>
      <point x="583" y="584"/>
      <point x="260" y="527"/>
    </contour>
  </outline>
</glyph>
<glyph name="eacute" format="1">
  <advance width="1145"/>
  <unicode hex="00E9"/>
  <outline>
    <contour>
      <point x="532" y="1343" type="curve"/>
      <point x="489" y="1386" type="line"/>
      <point x="802" y="1770" type="line"/>
      <point x="908" y="1661" type="line"/>
      <point x="846" y="1564"/>
      <point x="653" y="1425"/>
    </contour>
    <contour>
      <point x="103" y="556" type="curve" smooth="yes"/>
      <point x="103" y="898"/>
      <point x="332" y="1147"/>
      <point x="652" y="1152" type="curve" smooth="yes"/>
      <point x="882" y="1156"/>
      <point x="1031" y="1001"/>
      <point x="1037" y="736" type="curve" smooth="yes"/>
      <point x="1039" y="669"/>
      <point x="1033" y="617"/>
      <point x="1027" y="574" type="curve"/>
      <point x="250" y="574" type="line"/>
      <point x="250" y="563" type="line"/>
      <point x="245" y="230"/>
      <point x="430" y="80"/>
      <point x="653" y="80" type="curve" smooth="yes"/>
      <point x="781" y="80"/>
      <point x="923" y="119"/>
      <point x="979" y="157" type="curve"/>
      <point x="1010" y="88" type="line"/>
      <point x="932" y="18"/>
      <point x="752" y="-24"/>
      <point x="601" y="-24" type="curve" smooth="yes"/>
      <point x="279" y="-24"/>
      <point x="103" y="205"/>
    </contour>
    <contour>
      <point x="253" y="664" type="curve"/>
      <point x="884" y="664" type="line"/>
      <point x="896" y="832"/>
      <point x="864" y="977"/>
      <point x="750" y="1038" type="curve" smooth="yes"/>
      <point x="713" y="1058"/>
      <point x="668" y="1069"/>
      <point x="614" y="1069" type="curve" smooth="yes"/>
      <point x="431" y="1069"/>
      <point x="279" y="933"/>
    </contour>
  </outline>
</glyph>
<glyph name="igrave" format="1">
  <advance width="683"/>
  <unicode hex="00EC"/>
  <outline>
    <contour>
      <point x="461" y="1343" type="line"/>
      <point x="339" y="1425"/>
      <point x="150" y="1560"/>
      <point x="84" y="1661" type="curve"/>
      <point x="191" y="1770" type="line"/>
      <point x="503" y="1386" type="line"/>
    </contour>
    <contour>
      <point x="140" y="0" type="line"/>
      <point x="140" y="68" type="line"/>
      <point x="305" y="84" type="line"/>
      <point x="305" y="971" type="line"/>
      <point x="161" y="1021" type="line"/>
      <point x="161" y="1072" type="line"/>
      <point x="406" y="1133" type="line"/>
      <point x="444" y="1114" type="line"/>
      <point x="444" y="85" type="line"/>
      <point x="611" y="68" type="line"/>
      <point x="611" y="0" type="line"/>
    </contour>
  </outline>
</glyph>
<glyph name="iacute" format="1">
  <advance width="683"/>
  <unicode hex="00ED"/>
  <outline>
    <contour>
      <point x="286" y="1343" type="curve"/>
      <point x="244" y="1386" type="line"/>
      <point x="557" y="1770" type="line"/>
      <point x="663" y="1661" type="line"/>
      <point x="601" y="1564"/>
      <point x="408" y="1425"/>
    </contour>
    <contour>
      <point x="140" y="0" type="line"/>
      <point x="140" y="68" type="line"/>
      <point x="305" y="84" type="line"/>
      <point x="305" y="971" type="line"/>
      <point x="161" y="1021" type="line"/>
      <point x="161" y="1072" type="line"/>
      <point x="406" y="1133" type="line"/>
      <point x="444" y="1114" type="line"/>
      <point x="444" y="85" type="line"/>
      <point x="611" y="68" type="line"/>
      <point x="611" y="0" type="line"/>
    </contour>
  </outline>
</glyph>
<glyph name="icircumflex" format="1">
  <advance width="683"/>
  <unicode hex="00EE"/>
  <outline>
    <contour>
      <point x="72" y="1337" type="line"/>
      <point x="11" y="1373" type="line"/>
      <point x="292" y="1772" type="line"/>
      <point x="434" y="1772" type="line"/>
      <point x="707" y="1374" type="line"/>
      <point x="639" y="1337" type="line"/>
      <point x="362" y="1643" type="line"/>
    </contour>
    <contour>
      <point x="140" y="0" type="line"/>
      <point x="140" y="68" type="line"/>
      <point x="305" y="84" type="line"/>
      <point x="305" y="971" type="line"/>
      <point x="161" y="1021" type="line"/>
      <point x="161" y="1072" type="line"/>
      <point x="406" y="1133" type="line"/>
      <point x="444" y="1114" type="line"/>
      <point x="444" y="85" type="line"/>
      <point x="611" y="68" type="line"/>
      <point x="611" y="0" type="line"/>
    </contour>
  </outline>
</glyph>
<glyph name="eth" format="1">
  <advance width="1231"/>
  <unicode hex="00F0"/>
  <outline>
    <contour>
      <point x="100" y="502" type="curve" smooth="yes"/>
      <point x="100" y="854"/>
      <point x="339" y="1032"/>
      <point x="615" y="1032" type="curve" smooth="yes"/>
      <point x="746" y="1032"/>
      <point x="895" y="967"/>
      <point x="966" y="876" type="curve"/>
      <point x="919" y="1114"/>
      <point x="774" y="1305"/>
      <point x="618" y="1433" type="curve"/>
      <point x="445" y="1276" type="line"/>
      <point x="366" y="1338" type="line"/>
      <point x="537" y="1494" type="line"/>
      <point x="464" y="1544"/>
      <point x="391" y="1579"/>
      <point x="327" y="1599" type="curve"/>
      <point x="347" y="1683" type="line"/>
      <point x="439" y="1653"/>
      <point x="526" y="1613"/>
      <point x="606" y="1563" type="curve"/>
      <point x="660" y="1613"/>
      <point x="773" y="1717"/>
      <point x="773" y="1717" type="curve"/>
      <point x="855" y="1651" type="line"/>
      <point x="855" y="1651"/>
      <point x="749" y="1556"/>
      <point x="690" y="1505" type="curve"/>
      <point x="959" y="1302"/>
      <point x="1131" y="985"/>
      <point x="1131" y="610" type="curve" smooth="yes"/>
      <point x="1131" y="202"/>
      <point x="898" y="-22"/>
      <point x="612" y="-27" type="curve"/>
      <point x="303" y="-34"/>
      <point x="100" y="189"/>
    </contour>
    <contour>
      <point x="257" y="512" type="curve" smooth="yes"/>
      <point x="257" y="275"/>
      <point x="372" y="56"/>
      <point x="625" y="56" type="curve" smooth="yes"/>
      <point x="857" y="56"/>
      <point x="973" y="317"/>
      <point x="975" y="539" type="curve" smooth="yes"/>
      <point x="975" y="571"/>
      <point x="976" y="640"/>
      <point x="969" y="686" type="curve"/>
      <point x="936" y="802"/>
      <point x="810" y="948"/>
      <point x="614" y="948" type="curve" smooth="yes"/>
      <point x="375" y="948"/>
      <point x="257" y="775"/>
    </contour>
  </outline>
</glyph>
<glyph name="divide" format="1">
  <advance width="1269"/>
  <unicode hex="00F7"/>
  <outline>
    <contour>
      <point x="627" y="1080" type="curve" smooth="yes"/>
      <point x="576" y="1080"/>
      <point x="528" y="1117"/>
      <point x="528" y="1175" type="curve" smooth="yes"/>
      <point x="528" y="1238"/>
      <point x="589" y="1287"/>
      <point x="646" y="1287" type="curve" smooth="yes"/>
      <point x="714" y="1287"/>
      <point x="745" y="1243"/>
      <point x="745" y="1192" type="curve" smooth="yes"/>
      <point x="745" y="1125"/>
      <point x="686" y="1080"/>
    </contour>
    <contour>
      <point x="172" y="743" type="line"/>
      <point x="172" y="854" type="line"/>
      <point x="1097" y="854" type="line"/>
      <point x="1097" y="743" type="line"/>
    </contour>
    <contour>
      <point x="545" y="415" type="curve" smooth="yes"/>
      <point x="554" y="471"/>
      <point x="611" y="507"/>
      <point x="659" y="501" type="curve" smooth="yes"/>
      <point x="719" y="494"/>
      <point x="737" y="450"/>
      <point x="728" y="404" type="curve"/>
      <point x="721" y="344"/>
      <point x="664" y="312"/>
      <point x="613" y="318" type="curve"/>
      <point x="569" y="325"/>
      <point x="537" y="363"/>
    </contour>
  </outline>
</glyph>
<glyph name="oslash" format="1">
  <advance width="1231"/>
  <unicode hex="00F8"/>
  <outline>
    <contour>
      <point x="337" y="-166" type="line"/>
      <point x="399" y="15" type="line"/>
      <point x="186" y="104"/>
      <point x="101" y="337"/>
      <point x="104" y="581" type="curve" smooth="yes"/>
      <point x="109" y="934"/>
      <point x="353" y="1149"/>
      <point x="634" y="1152" type="curve" smooth="yes"/>
      <point x="689" y="1152"/>
      <point x="739" y="1146"/>
      <point x="784" y="1133" type="curve"/>
      <point x="841" y="1300" type="line"/>
      <point x="907" y="1275" type="line"/>
      <point x="851" y="1109" type="line"/>
      <point x="1045" y="1021"/>
      <point x="1128" y="805"/>
      <point x="1127" y="577" type="curve" smooth="yes"/>
      <point x="1124" y="224"/>
      <point x="902" y="-23"/>
      <point x="608" y="-24" type="curve" smooth="yes"/>
      <point x="557" y="-24"/>
      <point x="511" y="-18"/>
      <point x="469" y="-8" type="curve"/>
      <point x="407" y="-192" type="line"/>
    </contour>
    <contour>
      <point x="437" y="118" type="curve"/>
      <point x="750" y="1045" type="line"/>
      <point x="713" y="1060"/>
      <point x="671" y="1069"/>
      <point x="624" y="1070" type="curve" smooth="yes"/>
      <point x="393" y="1074"/>
      <point x="258" y="891"/>
      <point x="258" y="590" type="curve" smooth="yes"/>
      <point x="258" y="387"/>
      <point x="312" y="206"/>
    </contour>
    <contour>
      <point x="502" y="84" type="line"/>
      <point x="536" y="71"/>
      <point x="573" y="64"/>
      <point x="615" y="63" type="curve" smooth="yes"/>
      <point x="846" y="58"/>
      <point x="973" y="238"/>
      <point x="973" y="568" type="curve" smooth="yes"/>
      <point x="973" y="755"/>
      <point x="926" y="923"/>
      <point x="813" y="1009" type="curve"/>
    </contour>
  </outline>
</glyph>
<glyph name="yacute" format="1">
  <advance width="1150"/>
  <unicode hex="00FD"/>
  <outline>
    <contour>
      <point x="537" y="1343" type="curve"/>
      <point x="494" y="1386" type="line"/>
      <point x="807" y="1770" type="line"/>
      <point x="914" y="1661" type="line"/>
      <point x="851" y="1564"/>
      <point x="658" y="1425"/>
    </contour>
    <contour>
      <point x="150" y="-377" type="line"/>
      <point x="172" y="-384"/>
      <point x="206" y="-389"/>
      <point x="230" y="-390" type="curve" smooth="yes"/>
      <point x="327" y="-392"/>
      <point x="477" y="-326"/>
      <point x="574" y="-25" type="curve"/>
      <point x="547" y="-25" type="line"/>
      <point x="126" y="1022" type="line"/>
      <point x="2" y="1037" type="line"/>
      <point x="2" y="1119" type="line"/>
      <point x="452" y="1119" type="line"/>
      <point x="452" y="1037" type="line"/>
      <point x="287" y="1021" type="line"/>
      <point x="542" y="322" type="line"/>
      <point x="633" y="67" type="line"/>
      <point x="701" y="305" type="line"/>
      <point x="921" y="1023" type="line"/>
      <point x="757" y="1037" type="line"/>
      <point x="757" y="1119" type="line"/>
      <point x="1171" y="1119" type="line"/>
      <point x="1171" y="1037" type="line"/>
      <point x="1047" y="1023" type="line"/>
      <point x="786" y="240"/>
      <point x="719" y="48"/>
      <point x="688" y="-32" type="curve" smooth="yes"/>
      <point x="583" y="-300"/>
      <point x="482" y="-464"/>
      <point x="316" y="-505" type="curve" smooth="yes"/>
      <point x="289" y="-512"/>
      <point x="261" y="-515"/>
      <point x="229" y="-515" type="curve" smooth="yes"/>
      <point x="202" y="-515"/>
      <point x="161" y="-509"/>
      <point x="150" y="-500" type="curve"/>
    </contour>
  </outline>
</glyph>
<glyph name="ydieresis" format="1">
  <advance width="1150"/>
  <unicode hex="00FF"/>
  <outline>
    <contour>
      <point x="827" y="1425" type="curve" smooth="yes"/>
      <point x="776" y="1425"/>
      <point x="730" y="1459"/>
      <point x="730" y="1518" type="curve" smooth="yes"/>
      <point x="730" y="1580"/>
      <point x="789" y="1629"/>
      <point x="846" y="1629" type="curve" smooth="yes"/>
      <point x="914" y="1629"/>
      <point x="945" y="1586"/>
      <point x="945" y="1534" type="curve" smooth="yes"/>
      <point x="945" y="1468"/>
      <point x="886" y="1425"/>
    </contour>
    <contour>
      <point x="372" y="1425" type="curve" smooth="yes"/>
      <point x="321" y="1425"/>
      <point x="275" y="1459"/>
      <point x="275" y="1518" type="curve" smooth="yes"/>
      <point x="275" y="1580"/>
      <point x="334" y="1629"/>
      <point x="391" y="1629" type="curve" smooth="yes"/>
      <point x="459" y="1629"/>
      <point x="490" y="1586"/>
      <point x="490" y="1534" type="curve" smooth="yes"/>
      <point x="490" y="1468"/>
      <point x="431" y="1425"/>
    </contour>
    <contour>
      <point x="150" y="-377" type="line"/>
      <point x="172" y="-384"/>
      <point x="206" y="-389"/>
      <point x="230" y="-390" type="curve" smooth="yes"/>
      <point x="327" y="-392"/>
      <point x="477" y="-326"/>
      <point x="574" y="-25" type="curve"/>
      <point x="547" y="-25" type="line"/>
      <point x="126" y="1022" type="line"/>
      <point x="2" y="1037" type="line"/>
      <point x="2" y="1119" type="line"/>
      <point x="452" y="1119" type="line"/>
      <point x="452" y="1037" type="line"/>
      <point x="287" y="1021" type="line"/>
      <point x="542" y="322" type="line"/>
      <point x="633" y="67" type="line"/>
      <point x="701" y="305" type="line"/>
      <point x="921" y="1023" type="line"/>
      <point x="757" y="1037" type="line"/>
      <point x="757" y="1119" type="line"/>
      <point x="1171" y="1119" type="line"/>
      <point x="1171" y="1037" type="line"/>
      <point x="1047" y="1023" type="line"/>
      <point x="786" y="240"/>
      <point x="719" y="48"/>
      <point x="688" y="-32" type="curve" smooth="yes"/>
      <point x="583" y="-300"/>
      <point x="482" y="-464"/>
      <point x="316" y="-505" type="curve" smooth="yes"/>
      <point x="289" y="-512"/>
      <point x="261" y="-515"/>
      <point x="229" y="-515" type="curve" smooth="yes"/>
      <point x="202" y="-515"/>
      <point x="161" y="-509"/>
      <point x="150" y="-500" type="curve"/>
    </contour>
  </outline>
</glyph>
<glyph name="aogonek" format="1">
  <advance width="1145"/>
  <unicode hex="0105"/>
  <outline>
    <contour>
      <point x="111" y="312" type="curve"/>
      <point x="135" y="589"/>
      <point x="550" y="665"/>
      <point x="800" y="665" type="curve"/>
      <point x="800" y="753" type="line" smooth="yes"/>
      <point x="800" y="977"/>
      <point x="688" y="1037"/>
      <point x="505" y="1037" type="curve" smooth="yes"/>
      <point x="403" y="1037"/>
      <point x="259" y="992"/>
      <point x="183" y="947" type="curve"/>
      <point x="154" y="1018" type="line"/>
      <point x="254" y="1099"/>
      <point x="457" y="1139"/>
      <point x="555" y="1139" type="curve" smooth="yes"/>
      <point x="767" y="1139"/>
      <point x="945" y="1066"/>
      <point x="945" y="773" type="curve" smooth="yes"/>
      <point x="943" y="71" type="line"/>
      <point x="1075" y="71" type="line"/>
      <point x="1075" y="16" type="line"/>
      <point x="1070" y="13" type="line"/>
      <point x="1086" y="16" type="line"/>
      <point x="933" y="-39"/>
      <point x="752" y="-144"/>
      <point x="752" y="-279" type="curve" smooth="yes"/>
      <point x="752" y="-456"/>
      <point x="965" y="-442"/>
      <point x="1079" y="-374" type="curve"/>
      <point x="1079" y="-444" type="line"/>
      <point x="945" y="-552"/>
      <point x="615" y="-563"/>
      <point x="615" y="-317" type="curve" smooth="yes"/>
      <point x="615" y="-171"/>
      <point x="783" y="-57"/>
      <point x="885" y="-16" type="curve"/>
      <point x="845" y="-14"/>
      <point x="808" y="0"/>
      <point x="808" y="80" type="curve" smooth="yes"/>
      <point x="808" y="120" type="line"/>
      <point x="734" y="36"/>
      <point x="625" y="-22"/>
      <point x="448" y="-22" type="curve" smooth="yes"/>
      <point x="270" y="-22"/>
      <point x="98" y="96"/>
    </contour>
    <contour>
      <point x="258" y="310" type="curve" smooth="yes"/>
      <point x="256" y="145"/>
      <point x="365" y="75"/>
      <point x="521" y="75" type="curve" smooth="yes"/>
      <point x="665" y="75"/>
      <point x="762" y="150"/>
      <point x="799" y="181" type="curve"/>
      <point x="799" y="277"/>
      <point x="799" y="443"/>
      <point x="800" y="584" type="curve"/>
      <point x="583" y="584"/>
      <point x="260" y="527"/>
    </contour>
  </outline>
</glyph>
<glyph name="Eogonek" format="1">
  <advance width="1319"/>
  <unicode hex="0118"/>
  <outline>
    <contour>
      <point x="102" y="0" type="line"/>
      <point x="102" y="67" type="line"/>
      <point x="282" y="91" type="line"/>
      <point x="282" y="1461" type="line"/>
      <point x="106" y="1477" type="line"/>
      <point x="106" y="1553" type="line"/>
      <point x="1143" y="1553" type="line"/>
      <point x="1172" y="1267" type="line"/>
      <point x="1087" y="1267" type="line"/>
      <point x="1041" y="1461" type="line"/>
      <point x="429" y="1472" type="line"/>
      <point x="429" y="865" type="line"/>
      <point x="837" y="872" type="line"/>
      <point x="863" y="1033" type="line"/>
      <point x="942" y="1033" type="line"/>
      <point x="942" y="609" type="line"/>
      <point x="863" y="609" type="line"/>
      <point x="837" y="776" type="line"/>
      <point x="429" y="782" type="line"/>
      <point x="429" y="84" type="line"/>
      <point x="1087" y="100" type="line"/>
      <point x="1178" y="333" type="line"/>
      <point x="1252" y="315" type="line"/>
      <point x="1207" y="0" type="line"/>
      <point x="1091" y="-32"/>
      <point x="879" y="-175"/>
      <point x="879" y="-297" type="curve" smooth="yes"/>
      <point x="879" y="-390"/>
      <point x="928" y="-424"/>
      <point x="1023" y="-428" type="curve" smooth="yes"/>
      <point x="1111" y="-432"/>
      <point x="1201" y="-378"/>
      <point x="1241" y="-354" type="curve"/>
      <point x="1260" y="-426" type="line"/>
      <point x="1207" y="-467"/>
      <point x="1108" y="-533"/>
      <point x="944" y="-527" type="curve"/>
      <point x="809" y="-521"/>
      <point x="744" y="-435"/>
      <point x="744" y="-338" type="curve" smooth="yes"/>
      <point x="744" y="-206"/>
      <point x="902" y="-62"/>
      <point x="1057" y="0" type="curve"/>
    </contour>
  </outline>
</glyph>
<glyph name="hbar" format="1">
  <advance width="1404"/>
  <unicode hex="0127"/>
  <outline>
    <contour>
      <point x="131" y="0" type="line"/>
      <point x="131" y="68" type="line"/>
      <point x="283" y="86" type="line"/>
      <point x="283" y="1232" type="line"/>
      <point x="105" y="1232" type="line"/>
      <point x="105" y="1325" type="line"/>
      <point x="283" y="1325" type="line"/>
      <point x="283" y="1496" type="line"/>
      <point x="112" y="1520" type="line"/>
      <point x="112" y="1589" type="line"/>
      <point x="388" y="1623" type="line"/>
      <point x="427" y="1602" type="line"/>
      <point x="426" y="1325" type="line"/>
      <point x="636" y="1325" type="line"/>
      <point x="636" y="1232" type="line"/>
      <point x="426" y="1232" type="line"/>
      <point x="426" y="1130" type="line"/>
      <point x="423" y="983" type="line"/>
      <point x="540" y="1075"/>
      <point x="726" y="1142"/>
      <point x="836" y="1142" type="curve" smooth="yes"/>
      <point x="1107" y="1142"/>
      <point x="1180" y="995"/>
      <point x="1177" y="607" type="curve"/>
      <point x="1177" y="85" type="line"/>
      <point x="1332" y="68" type="line"/>
      <point x="1332" y="0" type="line"/>
      <point x="867" y="-1" type="line"/>
      <point x="867" y="68" type="line"/>
      <point x="1032" y="85" type="line"/>
      <point x="1032" y="549" type="line" smooth="yes"/>
      <point x="1032" y="893"/>
      <point x="993" y="1030"/>
      <point x="772" y="1030" type="curve" smooth="yes"/>
      <point x="674" y="1030"/>
      <point x="520" y="987"/>
      <point x="427" y="919" type="curve"/>
      <point x="427" y="85" type="line"/>
      <point x="583" y="68" type="line"/>
      <point x="583" y="0" type="line"/>
    </contour>
  </outline>
</glyph>
<glyph name="dotlessi" format="1">
  <advance width="683"/>
  <unicode hex="0131"/>
  <outline>
    <contour>
      <point x="140" y="0" type="line"/>
      <point x="140" y="68" type="line"/>
      <point x="305" y="84" type="line"/>
      <point x="305" y="971" type="line"/>
      <point x="161" y="1021" type="line"/>
      <point x="161" y="1072" type="line"/>
      <point x="406" y="1133" type="line"/>
      <point x="444" y="1114" type="line"/>
      <point x="444" y="85" type="line"/>
      <point x="611" y="68" type="line"/>
      <point x="611" y="0" type="line"/>
    </contour>
  </outline>
</glyph>
<glyph name="IJ" format="1">
  <advance width="1484"/>
  <unicode hex="0132"/>
  <outline>
    <contour>
      <point x="677" y="-328" type="line"/>
      <point x="840" y="-284"/>
      <point x="962" y="-188"/>
      <point x="1013" y="-60" type="curve"/>
      <point x="1053" y="57"/>
      <point x="1056" y="197"/>
      <point x="1056" y="401" type="curve" smooth="yes"/>
      <point x="1056" y="1462" type="line"/>
      <point x="880" y="1477" type="line"/>
      <point x="880" y="1553" type="line"/>
      <point x="1385" y="1553" type="line"/>
      <point x="1385" y="1477" type="line"/>
      <point x="1204" y="1462" type="line"/>
      <point x="1204" y="475" type="line" smooth="yes"/>
      <point x="1204" y="311"/>
      <point x="1210" y="159"/>
      <point x="1186" y="35" type="curve" smooth="yes"/>
      <point x="1138" y="-205"/>
      <point x="924" y="-358"/>
      <point x="721" y="-387" type="curve"/>
    </contour>
    <contour>
      <point x="136" y="0" type="line"/>
      <point x="136" y="67" type="line"/>
      <point x="305" y="91" type="line"/>
      <point x="305" y="1462" type="line"/>
      <point x="139" y="1477" type="line"/>
      <point x="139" y="1553" type="line"/>
      <point x="621" y="1553" type="line"/>
      <point x="621" y="1477" type="line"/>
      <point x="453" y="1462" type="line"/>
      <point x="453" y="91" type="line"/>
      <point x="629" y="67" type="line"/>
      <point x="629" y="0" type="line"/>
    </contour>
  </outline>
</glyph>
<glyph name="Kcommaaccent" format="1">
  <advance width="1419"/>
  <unicode hex="0136"/>
  <outline>
    <contour>
      <point x="106" y="0" type="line"/>
      <point x="106" y="67" type="line"/>
      <point x="268" y="91" type="line"/>
      <point x="268" y="1463" type="line"/>
      <point x="109" y="1477" type="line"/>
      <point x="109" y="1553" type="line"/>
      <point x="578" y="1553" type="line"/>
      <point x="578" y="1477" type="line"/>
      <point x="417" y="1463" type="line"/>
      <point x="417" y="716" type="line"/>
      <point x="1056" y="1461" type="line"/>
      <point x="896" y="1477" type="line"/>
      <point x="896" y="1499"/>
      <point x="895" y="1531"/>
      <point x="895" y="1553" type="curve"/>
      <point x="1356" y="1553" type="line"/>
      <point x="1356" y="1477" type="line"/>
      <point x="1197" y="1461" type="line"/>
      <point x="695" y="894" type="line"/>
      <point x="818" y="764"/>
      <point x="1206" y="94"/>
      <point x="1273" y="96" type="curve"/>
      <point x="1425" y="67" type="line"/>
      <point x="1425" y="0" type="line"/>
      <point x="1164" y="0" type="line"/>
      <point x="1093" y="-1"/>
      <point x="750" y="663"/>
      <point x="609" y="796" type="curve"/>
      <point x="417" y="580" type="line"/>
      <point x="417" y="90" type="line"/>
      <point x="594" y="67" type="line"/>
      <point x="594" y="0" type="line"/>
    </contour>
    <contour>
      <point x="688" y="-149" type="line"/>
      <point x="761" y="-74" type="line"/>
      <point x="891" y="-98"/>
      <point x="960" y="-207"/>
      <point x="961" y="-302" type="curve" smooth="yes"/>
      <point x="963" y="-470"/>
      <point x="828" y="-604"/>
      <point x="729" y="-640" type="curve"/>
      <point x="687" y="-603" type="line"/>
      <point x="687" y="-576" type="line"/>
      <point x="767" y="-542"/>
      <point x="808" y="-434"/>
      <point x="808" y="-333" type="curve" smooth="yes"/>
      <point x="808" y="-246"/>
      <point x="736" y="-192"/>
      <point x="688" y="-192" type="curve"/>
    </contour>
  </outline>
</glyph>
<glyph name="Ldotaccent" format="1">
  <advance width="1392"/>
  <unicode hex="013F"/>
  <outline>
    <contour>
      <point x="106" y="0" type="line"/>
      <point x="106" y="67" type="line"/>
      <point x="286" y="92" type="line"/>
      <point x="286" y="1454" type="line"/>
      <point x="110" y="1469" type="line"/>
      <point x="110" y="1553" type="line"/>
      <point x="629" y="1553" type="line"/>
      <point x="629" y="1469" type="line"/>
      <point x="434" y="1454" type="line"/>
      <point x="433" y="86" type="line"/>
      <point x="1038" y="105" type="line"/>
      <point x="1146" y="350" type="line"/>
      <point x="1214" y="318" type="line"/>
      <point x="1149" y="0" type="line"/>
    </contour>
    <contour>
      <point x="1180" y="757" type="curve"/>
      <point x="1137" y="764"/>
      <point x="1104" y="802"/>
      <point x="1112" y="854" type="curve" smooth="yes"/>
      <point x="1121" y="910"/>
      <point x="1179" y="945"/>
      <point x="1226" y="940" type="curve" smooth="yes"/>
      <point x="1286" y="933"/>
      <point x="1304" y="888"/>
      <point x="1295" y="842" type="curve"/>
      <point x="1288" y="783"/>
      <point x="1231" y="750"/>
    </contour>
  </outline>
</glyph>
<glyph name="Rcommaaccent" format="1">
  <advance width="1419"/>
  <unicode hex="0156"/>
  <outline>
    <contour>
      <point x="86" y="0" type="line"/>
      <point x="86" y="67" type="line"/>
      <point x="287" y="92" type="line"/>
      <point x="287" y="1454" type="line"/>
      <point x="108" y="1469" type="line"/>
      <point x="108" y="1553" type="line"/>
      <point x="362" y="1553" type="line"/>
      <point x="431" y="1554"/>
      <point x="536" y="1566"/>
      <point x="669" y="1566" type="curve" smooth="yes"/>
      <point x="972" y="1566"/>
      <point x="1187" y="1471"/>
      <point x="1187" y="1148" type="curve" smooth="yes"/>
      <point x="1187" y="940"/>
      <point x="1048" y="773"/>
      <point x="835" y="713" type="curve"/>
      <point x="836" y="712"/>
      <point x="837" y="711"/>
      <point x="839" y="711" type="curve" smooth="yes"/>
      <point x="1029" y="650"/>
      <point x="1215" y="109"/>
      <point x="1306" y="91" type="curve" smooth="yes"/>
      <point x="1428" y="67" type="line"/>
      <point x="1428" y="0" type="line"/>
      <point x="1172" y="0" type="line"/>
      <point x="1081" y="-1"/>
      <point x="880" y="700"/>
      <point x="656" y="686" type="curve"/>
      <point x="660" y="689" type="line"/>
      <point x="589" y="686"/>
      <point x="511" y="687"/>
      <point x="435" y="687" type="curve"/>
      <point x="435" y="91" type="line"/>
      <point x="652" y="67" type="line"/>
      <point x="652" y="0" type="line"/>
    </contour>
    <contour>
      <point x="435" y="777" type="line"/>
      <point x="481" y="771"/>
      <point x="616" y="769"/>
      <point x="666" y="769" type="curve" smooth="yes"/>
      <point x="908" y="772"/>
      <point x="1033" y="908"/>
      <point x="1033" y="1130" type="curve" smooth="yes"/>
      <point x="1033" y="1360"/>
      <point x="929" y="1493"/>
      <point x="641" y="1483" type="curve" smooth="yes"/>
      <point x="576" y="1481"/>
      <point x="489" y="1482"/>
      <point x="435" y="1467" type="curve"/>
    </contour>
    <contour>
      <point x="673" y="-149" type="line"/>
      <point x="746" y="-74" type="line"/>
      <point x="875" y="-98"/>
      <point x="944" y="-207"/>
      <point x="946" y="-302" type="curve" smooth="yes"/>
      <point x="948" y="-470"/>
      <point x="812" y="-604"/>
      <point x="713" y="-640" type="curve"/>
      <point x="672" y="-603" type="line"/>
      <point x="672" y="-576" type="line"/>
      <point x="751" y="-542"/>
      <point x="793" y="-434"/>
      <point x="793" y="-333" type="curve" smooth="yes"/>
      <point x="793" y="-246"/>
      <point x="721" y="-192"/>
      <point x="673" y="-192" type="curve"/>
    </contour>
  </outline>
</glyph>
<glyph name="rcommaaccent" format="1">
  <advance width="923"/>
  <unicode hex="0157"/>
  <outline>
    <contour>
      <point x="106" y="0" type="line"/>
      <point x="106" y="68" type="line"/>
      <point x="282" y="87" type="line"/>
      <point x="282" y="968" type="line"/>
      <point x="135" y="1021" type="line"/>
      <point x="135" y="1072" type="line"/>
      <point x="371" y="1133" type="line"/>
      <point x="409" y="1114" type="line"/>
      <point x="409" y="974" type="line"/>
      <point x="466" y="1043"/>
      <point x="648" y="1139"/>
      <point x="783" y="1139" type="curve" smooth="yes"/>
      <point x="827" y="1139"/>
      <point x="867" y="1137"/>
      <point x="882" y="1132" type="curve"/>
      <point x="882" y="978" type="line"/>
      <point x="845" y="992"/>
      <point x="804" y="1005"/>
      <point x="723" y="1005" type="curve" smooth="yes"/>
      <point x="594" y="1004"/>
      <point x="488" y="954"/>
      <point x="427" y="915" type="curve"/>
      <point x="427" y="87" type="line"/>
      <point x="730" y="68" type="line"/>
      <point x="730" y="0" type="line"/>
    </contour>
    <contour>
      <point x="262" y="-149" type="line"/>
      <point x="334" y="-74" type="line"/>
      <point x="464" y="-98"/>
      <point x="533" y="-207"/>
      <point x="534" y="-302" type="curve" smooth="yes"/>
      <point x="536" y="-470"/>
      <point x="401" y="-604"/>
      <point x="302" y="-640" type="curve"/>
      <point x="261" y="-603" type="line"/>
      <point x="261" y="-576" type="line"/>
      <point x="340" y="-542"/>
      <point x="382" y="-434"/>
      <point x="382" y="-333" type="curve" smooth="yes"/>
      <point x="382" y="-246"/>
      <point x="310" y="-192"/>
      <point x="262" y="-192" type="curve"/>
    </contour>
  </outline>
</glyph>
<glyph name="Rcaron" format="1">
  <advance width="1419"/>
  <unicode hex="0158"/>
  <outline>
    <contour>
      <point x="619" y="1631" type="line"/>
      <point x="356" y="1879" type="line"/>
      <point x="423" y="1920" type="line"/>
      <point x="689" y="1736" type="line"/>
      <point x="959" y="1920" type="line"/>
      <point x="1018" y="1881" type="line"/>
      <point x="759" y="1631" type="line"/>
    </contour>
    <contour>
      <point x="86" y="0" type="line"/>
      <point x="86" y="67" type="line"/>
      <point x="287" y="92" type="line"/>
      <point x="287" y="1454" type="line"/>
      <point x="108" y="1469" type="line"/>
      <point x="108" y="1553" type="line"/>
      <point x="362" y="1553" type="line"/>
      <point x="431" y="1554"/>
      <point x="536" y="1566"/>
      <point x="669" y="1566" type="curve" smooth="yes"/>
      <point x="972" y="1566"/>
      <point x="1187" y="1471"/>
      <point x="1187" y="1148" type="curve" smooth="yes"/>
      <point x="1187" y="940"/>
      <point x="1048" y="773"/>
      <point x="835" y="713" type="curve"/>
      <point x="836" y="712"/>
      <point x="837" y="711"/>
      <point x="839" y="711" type="curve" smooth="yes"/>
      <point x="1029" y="650"/>
      <point x="1215" y="109"/>
      <point x="1306" y="91" type="curve" smooth="yes"/>
      <point x="1428" y="67" type="line"/>
      <point x="1428" y="0" type="line"/>
      <point x="1172" y="0" type="line"/>
      <point x="1081" y="-1"/>
      <point x="880" y="700"/>
      <point x="656" y="686" type="curve"/>
      <point x="660" y="689" type="line"/>
      <point x="589" y="686"/>
      <point x="511" y="687"/>
      <point x="435" y="687" type="curve"/>
      <point x="435" y="91" type="line"/>
      <point x="652" y="67" type="line"/>
      <point x="652" y="0" type="line"/>
    </contour>
    <contour>
      <point x="435" y="777" type="line"/>
      <point x="481" y="771"/>
      <point x="616" y="769"/>
      <point x="666" y="769" type="curve" smooth="yes"/>
      <point x="908" y="772"/>
      <point x="1033" y="908"/>
      <point x="1033" y="1130" type="curve" smooth="yes"/>
      <point x="1033" y="1360"/>
      <point x="929" y="1493"/>
      <point x="641" y="1483" type="curve" smooth="yes"/>
      <point x="576" y="1481"/>
      <point x="489" y="1482"/>
      <point x="435" y="1467" type="curve"/>
    </contour>
  </outline>
</glyph>
<glyph name="scaron" format="1">
  <advance width="1028"/>
  <unicode hex="0161"/>
  <outline>
    <contour>
      <point x="458" y="1337" type="line"/>
      <point x="178" y="1734" type="line"/>
      <point x="245" y="1771" type="line"/>
      <point x="530" y="1465" type="line"/>
      <point x="813" y="1772" type="line"/>
      <point x="874" y="1735" type="line"/>
      <point x="600" y="1337" type="line"/>
    </contour>
    <contour>
      <point x="157" y="61" type="curve"/>
      <point x="157" y="279" type="line"/>
      <point x="228" y="279" type="line"/>
      <point x="260" y="143" type="line"/>
      <point x="328" y="86"/>
      <point x="412" y="65"/>
      <point x="501" y="61" type="curve" smooth="yes"/>
      <point x="665" y="55"/>
      <point x="792" y="117"/>
      <point x="792" y="266" type="curve" smooth="yes"/>
      <point x="792" y="409"/>
      <point x="630" y="456"/>
      <point x="482" y="522" type="curve" smooth="yes"/>
      <point x="323" y="593"/>
      <point x="168" y="681"/>
      <point x="171" y="857" type="curve" smooth="yes"/>
      <point x="174" y="1058"/>
      <point x="384" y="1147"/>
      <point x="562" y="1152" type="curve" smooth="yes"/>
      <point x="692" y="1156"/>
      <point x="821" y="1116"/>
      <point x="875" y="1080" type="curve"/>
      <point x="875" y="879" type="line"/>
      <point x="807" y="879" type="line"/>
      <point x="772" y="1004" type="line"/>
      <point x="729" y="1044"/>
      <point x="656" y="1073"/>
      <point x="568" y="1073" type="curve" smooth="yes"/>
      <point x="406" y="1074"/>
      <point x="312" y="996"/>
      <point x="310" y="882" type="curve" smooth="yes"/>
      <point x="307" y="752"/>
      <point x="438" y="702"/>
      <point x="590" y="631" type="curve"/>
      <point x="739" y="565"/>
      <point x="930" y="497"/>
      <point x="930" y="298" type="curve" smooth="yes"/>
      <point x="930" y="87"/>
      <point x="748" y="-24"/>
      <point x="505" y="-24" type="curve" smooth="yes"/>
      <point x="385" y="-24"/>
      <point x="258" y="5"/>
    </contour>
  </outline>
</glyph>
<glyph name="zcaron" format="1">
  <advance width="1078"/>
  <unicode hex="017E"/>
  <outline>
    <contour>
      <point x="489" y="1337" type="line"/>
      <point x="209" y="1734" type="line"/>
      <point x="277" y="1771" type="line"/>
      <point x="561" y="1465" type="line"/>
      <point x="844" y="1772" type="line"/>
      <point x="905" y="1735" type="line"/>
      <point x="631" y="1337" type="line"/>
    </contour>
    <contour>
      <point x="88" y="70" type="line"/>
      <point x="165" y="172" type="line"/>
      <point x="743" y="943" type="line"/>
      <point x="829" y="1047" type="line"/>
      <point x="255" y="1031" type="line"/>
      <point x="207" y="841" type="line"/>
      <point x="135" y="841" type="line"/>
      <point x="137" y="1119" type="line"/>
      <point x="977" y="1119" type="line"/>
      <point x="1000" y="1052" type="line"/>
      <point x="360" y="203" type="line"/>
      <point x="260" y="77" type="line"/>
      <point x="884" y="96" type="line"/>
      <point x="941" y="276" type="line"/>
      <point x="964" y="276"/>
      <point x="996" y="275"/>
      <point x="1019" y="275" type="curve"/>
      <point x="1002" y="0" type="line"/>
      <point x="117" y="0" type="line"/>
    </contour>
  </outline>
</glyph>
<glyph name="dotlessj" format="1">
  <advance width="650"/>
  <unicode hex="0237"/>
  <outline>
    <contour>
      <point x="303" y="-2" type="curve" smooth="yes"/>
      <point x="303" y="971" type="line"/>
      <point x="152" y="1021" type="line"/>
      <point x="152" y="1072" type="line"/>
      <point x="406" y="1132" type="line"/>
      <point x="445" y="1114" type="line"/>
      <point x="445" y="-16" type="line" smooth="yes"/>
      <point x="445" y="-328"/>
      <point x="320" y="-515"/>
      <point x="99" y="-515" type="curve" smooth="yes"/>
      <point x="72" y="-515"/>
      <point x="1" y="-509"/>
      <point x="-10" y="-500" type="curve"/>
      <point x="-10" y="-395" type="line"/>
      <point x="12" y="-402"/>
      <point x="76" y="-406"/>
      <point x="100" y="-406" type="curve" smooth="yes"/>
      <point x="229" y="-406"/>
      <point x="303" y="-320"/>
    </contour>
  </outline>
</glyph>
<glyph name="circumflex" format="1">
  <advance width="1063"/>
  <unicode hex="02C6"/>
  <outline>
    <contour>
      <point x="241" y="1337" type="line"/>
      <point x="180" y="1373" type="line"/>
      <point x="460" y="1772" type="line"/>
      <point x="603" y="1772" type="line"/>
      <point x="876" y="1374" type="line"/>
      <point x="808" y="1337" type="line"/>
      <point x="531" y="1643" type="line"/>
    </contour>
  </outline>
</glyph>
<glyph name="caron" format="1">
  <advance width="1063"/>
  <unicode hex="02C7"/>
  <outline>
    <contour>
      <point x="459" y="1337" type="line"/>
      <point x="180" y="1734" type="line"/>
      <point x="247" y="1771" type="line"/>
      <point x="531" y="1465" type="line"/>
      <point x="815" y="1772" type="line"/>
      <point x="876" y="1735" type="line"/>
      <point x="602" y="1337" type="line"/>
    </contour>
  </outline>
</glyph>
<glyph name="ring" format="1">
  <advance width="560"/>
  <unicode hex="02DA"/>
  <outline>
    <contour>
      <point x="279" y="1320" type="curve" smooth="yes"/>
      <point x="144" y="1320"/>
      <point x="34" y="1425"/>
      <point x="34" y="1556" type="curve" smooth="yes"/>
      <point x="34" y="1686"/>
      <point x="144" y="1792"/>
      <point x="279" y="1792" type="curve" smooth="yes"/>
      <point x="415" y="1792"/>
      <point x="525" y="1687"/>
      <point x="525" y="1556" type="curve" smooth="yes"/>
      <point x="525" y="1426"/>
      <point x="415" y="1320"/>
    </contour>
    <contour>
      <point x="279" y="1403" type="curve" smooth="yes"/>
      <point x="363" y="1403"/>
      <point x="432" y="1467"/>
      <point x="432" y="1555" type="curve" smooth="yes"/>
      <point x="432" y="1641"/>
      <point x="363" y="1705"/>
      <point x="279" y="1705" type="curve" smooth="yes"/>
      <point x="196" y="1705"/>
      <point x="127" y="1640"/>
      <point x="127" y="1555" type="curve" smooth="yes"/>
      <point x="127" y="1467"/>
      <point x="196" y="1403"/>
    </contour>
  </outline>
</glyph>
<glyph name="Delta" format="1">
  <advance width="1770"/>
  <unicode hex="0394"/>
  <unicode hex="2206"/>
  <outline>
    <contour>
      <point x="148" y="22" type="line"/>
      <point x="835" y="1483" type="line"/>
      <point x="867" y="1483" type="line"/>
      <point x="1608" y="27" type="line"/>
      <point x="1592" y="1" type="line"/>
      <point x="162" y="1" type="line"/>
    </contour>
    <contour>
      <point x="280" y="94" type="line"/>
      <point x="1410" y="94" type="line"/>
      <point x="825" y="1261" type="line"/>
    </contour>
  </outline>
</glyph>
<glyph name="endash" format="1">
  <advance width="1407"/>
  <unicode hex="2013"/>
  <outline>
    <contour>
      <point x="172" y="743" type="line"/>
      <point x="172" y="854" type="line"/>
      <point x="1235" y="854" type="line"/>
      <point x="1235" y="743" type="line"/>
    </contour>
  </outline>
</glyph>
<glyph name="emdash" format="1">
  <advance width="2392"/>
  <unicode hex="2014"/>
  <outline>
    <contour>
      <point x="172" y="743" type="line"/>
      <point x="172" y="854" type="line"/>
      <point x="2220" y="854" type="line"/>
      <point x="2220" y="743" type="line"/>
    </contour>
  </outline>
</glyph>
<glyph name="quotedblleft" format="1">
  <advance width="1303"/>
  <unicode hex="201C"/>
  <outline>
    <contour>
      <point x="946" y="953" type="line"/>
      <point x="801" y="988"/>
      <point x="740" y="1146"/>
      <point x="738" y="1261" type="curve" smooth="yes"/>
      <point x="736" y="1487"/>
      <point x="903" y="1648"/>
      <point x="1047" y="1707" type="curve"/>
      <point x="1082" y="1664" type="line"/>
      <point x="1082" y="1639" type="line"/>
      <point x="989" y="1607"/>
      <point x="879" y="1472"/>
      <point x="879" y="1320" type="curve" smooth="yes"/>
      <point x="879" y="1198"/>
      <point x="951" y="1105"/>
      <point x="1026" y="1094" type="curve"/>
      <point x="1026" y="1058" type="line"/>
    </contour>
    <contour>
      <point x="417" y="953" type="line"/>
      <point x="272" y="988"/>
      <point x="211" y="1146"/>
      <point x="210" y="1261" type="curve" smooth="yes"/>
      <point x="208" y="1487"/>
      <point x="374" y="1648"/>
      <point x="518" y="1707" type="curve"/>
      <point x="554" y="1664" type="line"/>
      <point x="554" y="1639" type="line"/>
      <point x="460" y="1607"/>
      <point x="350" y="1472"/>
      <point x="350" y="1320" type="curve" smooth="yes"/>
      <point x="350" y="1198"/>
      <point x="423" y="1105"/>
      <point x="497" y="1094" type="curve"/>
      <point x="497" y="1058" type="line"/>
    </contour>
  </outline>
</glyph>
<glyph name="product" format="1">
  <advance width="1415"/>
  <unicode hex="220F"/>
  <outline>
    <contour>
      <point x="31" y="-110" type="line"/>
      <point x="203" y="-85" type="line"/>
      <point x="203" y="1463" type="line"/>
      <point x="35" y="1478" type="line"/>
      <point x="35" y="1553" type="line"/>
      <point x="1327" y="1553" type="line"/>
      <point x="1327" y="1478" type="line"/>
      <point x="1162" y="1463" type="line"/>
      <point x="1162" y="-86" type="line"/>
      <point x="1338" y="-110" type="line"/>
      <point x="1338" y="-177" type="line"/>
      <point x="844" y="-177" type="line"/>
      <point x="844" y="-110" type="line"/>
      <point x="1016" y="-85" type="line"/>
      <point x="1016" y="1470" type="line"/>
      <point x="350" y="1470" type="line"/>
      <point x="350" y="-85" type="line"/>
      <point x="524" y="-110" type="line"/>
      <point x="524" y="-177" type="line"/>
      <point x="31" y="-177" type="line"/>
    </contour>
  </outline>
</glyph>
<glyph name="radical" format="1">
  <advance width="1770"/>
  <unicode hex="221A"/>
  <outline>
    <contour>
      <point x="240" y="492" type="line"/>
      <point x="180" y="579" type="line"/>
      <point x="351" y="708" type="line"/>
      <point x="481" y="708" type="line"/>
      <point x="827" y="-198" type="line"/>
      <point x="835" y="-198" type="line"/>
      <point x="1479" y="1920" type="line"/>
      <point x="1603" y="1920" type="line"/>
      <point x="897" y="-354" type="line"/>
      <point x="757" y="-354" type="line"/>
      <point x="370" y="593" type="line"/>
    </contour>
  </outline>
</glyph>
<glyph name="integral" format="1">
  <advance width="1063"/>
  <unicode hex="222B"/>
  <outline>
    <contour>
      <point x="102" y="-258" type="line"/>
      <point x="117" y="-309"/>
      <point x="191" y="-355"/>
      <point x="265" y="-355" type="curve" smooth="yes"/>
      <point x="458" y="-355"/>
      <point x="502" y="-214"/>
      <point x="502" y="-1" type="curve" smooth="yes"/>
      <point x="502" y="341"/>
      <point x="347" y="831"/>
      <point x="347" y="1203" type="curve" smooth="yes"/>
      <point x="347" y="1454"/>
      <point x="491" y="1691"/>
      <point x="742" y="1691" type="curve" smooth="yes"/>
      <point x="809" y="1691"/>
      <point x="936" y="1673"/>
      <point x="982" y="1571" type="curve"/>
      <point x="982" y="1571"/>
      <point x="880" y="1501"/>
      <point x="880" y="1502" type="curve" smooth="yes"/>
      <point x="861" y="1552"/>
      <point x="791" y="1598"/>
      <point x="718" y="1598" type="curve" smooth="yes"/>
      <point x="527" y="1598"/>
      <point x="480" y="1457"/>
      <point x="480" y="1251" type="curve" smooth="yes"/>
      <point x="480" y="870"/>
      <point x="635" y="406"/>
      <point x="635" y="39" type="curve" smooth="yes"/>
      <point x="635" y="-217"/>
      <point x="488" y="-448"/>
      <point x="239" y="-448" type="curve" smooth="yes"/>
      <point x="172" y="-448"/>
      <point x="46" y="-430"/>
      <point x="0" y="-327" type="curve"/>
    </contour>
  </outline>
</glyph>
<glyph name="notequal" format="1">
  <advance width="1229"/>
  <unicode hex="2260"/>
  <outline>
    <contour>
      <point x="426" y="354" type="line"/>
      <point x="476" y="534" type="line"/>
      <point x="172" y="534" type="line"/>
      <point x="172" y="646" type="line"/>
      <point x="510" y="646" type="line"/>
      <point x="591" y="942" type="line"/>
      <point x="172" y="942" type="line"/>
      <point x="172" y="1053" type="line"/>
      <point x="623" y="1053" type="line"/>
      <point x="676" y="1239" type="line"/>
      <point x="808" y="1239" type="line"/>
      <point x="755" y="1053" type="line"/>
      <point x="1057" y="1053" type="line"/>
      <point x="1057" y="942" type="line"/>
      <point x="723" y="942" type="line"/>
      <point x="642" y="646" type="line"/>
      <point x="1057" y="646" type="line"/>
      <point x="1057" y="534" type="line"/>
      <point x="609" y="534" type="line"/>
      <point x="558" y="354" type="line"/>
    </contour>
  </outline>
</glyph>
<glyph name="greaterequal" format="1">
  <advance width="1312"/>
  <unicode hex="2265"/>
  <outline>
    <contour>
      <point x="172" y="508" type="line"/>
      <point x="172" y="638" type="line"/>
      <point x="963" y="977" type="line"/>
      <point x="172" y="1313" type="line"/>
      <point x="172" y="1443" type="line"/>
      <point x="1140" y="1012" type="line"/>
      <point x="1140" y="945" type="line"/>
    </contour>
    <contour>
      <point x="172" y="177" type="line"/>
      <point x="172" y="288" type="line"/>
      <point x="1140" y="288" type="line"/>
      <point x="1140" y="177" type="line"/>
    </contour>
  </outline>
</glyph>
<glyph name="lozenge" format="1">
  <advance width="1415"/>
  <unicode hex="25CA"/>
  <outline>
    <contour>
      <point x="610" y="0" type="line"/>
      <point x="188" y="693" type="line"/>
      <point x="188" y="736" type="line"/>
      <point x="615" y="1416" type="line"/>
      <point x="756" y="1416" type="line"/>
      <point x="1177" y="723" type="line"/>
      <point x="1177" y="680" type="line"/>
      <point x="750" y="0" type="line"/>
    </contour>
    <contour>
      <point x="689" y="97" type="line"/>
      <point x="1048" y="685" type="line"/>
      <point x="676" y="1318" type="line"/>
      <point x="318" y="730" type="line"/>
    </contour>
  </outline>
</glyph>
<glyph name="ffi" format="1">
  <advance width="2357"/>
  <unicode hex="FB03"/>
  <outline>
    <contour>
      <point x="956" y="0" type="line"/>
      <point x="956" y="68" type="line"/>
      <point x="1160" y="85" type="line"/>
      <point x="1160" y="996" type="line"/>
      <point x="935" y="996" type="line"/>
      <point x="935" y="1056" type="line"/>
      <point x="1160" y="1100" type="line"/>
      <point x="1160" y="1205" type="line" smooth="yes"/>
      <point x="1160" y="1503"/>
      <point x="1383" y="1682"/>
      <point x="1558" y="1682" type="curve" smooth="yes"/>
      <point x="1639" y="1682"/>
      <point x="1675" y="1675"/>
      <point x="1701" y="1665" type="curve"/>
      <point x="1701" y="1536" type="line"/>
      <point x="1678" y="1550"/>
      <point x="1618" y="1565"/>
      <point x="1529" y="1565" type="curve" smooth="yes"/>
      <point x="1417" y="1565"/>
      <point x="1305" y="1518"/>
      <point x="1305" y="1261" type="curve" smooth="yes"/>
      <point x="1305" y="1100" type="line"/>
      <point x="1633" y="1100" type="line"/>
      <point x="1633" y="996" type="line"/>
      <point x="1305" y="996" type="line"/>
      <point x="1305" y="84" type="line"/>
      <point x="1547" y="68" type="line"/>
      <point x="1547" y="0" type="line"/>
    </contour>
    <contour>
      <point x="119" y="0" type="line"/>
      <point x="119" y="68" type="line"/>
      <point x="323" y="85" type="line"/>
      <point x="323" y="996" type="line"/>
      <point x="97" y="996" type="line"/>
      <point x="97" y="1056" type="line"/>
      <point x="323" y="1100" type="line"/>
      <point x="323" y="1205" type="line" smooth="yes"/>
      <point x="323" y="1503"/>
      <point x="545" y="1682"/>
      <point x="721" y="1682" type="curve" smooth="yes"/>
      <point x="802" y="1682"/>
      <point x="838" y="1675"/>
      <point x="864" y="1665" type="curve"/>
      <point x="864" y="1536" type="line"/>
      <point x="840" y="1550"/>
      <point x="781" y="1565"/>
      <point x="692" y="1565" type="curve" smooth="yes"/>
      <point x="580" y="1565"/>
      <point x="468" y="1518"/>
      <point x="468" y="1261" type="curve" smooth="yes"/>
      <point x="468" y="1100" type="line"/>
      <point x="795" y="1100" type="line"/>
      <point x="795" y="996" type="line"/>
      <point x="468" y="996" type="line"/>
      <point x="468" y="84" type="line"/>
      <point x="709" y="68" type="line"/>
      <point x="709" y="0" type="line"/>
    </contour>
    <contour>
      <point x="1916" y="1512" type="curve" smooth="yes"/>
      <point x="1916" y="1578"/>
      <point x="1977" y="1627"/>
      <point x="2033" y="1627" type="curve" smooth="yes"/>
      <point x="2102" y="1627"/>
      <point x="2133" y="1583"/>
      <point x="2133" y="1529" type="curve" smooth="yes"/>
      <point x="2133" y="1460"/>
      <point x="2074" y="1415"/>
      <point x="2015" y="1415" type="curve" smooth="yes"/>
      <point x="1964" y="1415"/>
      <point x="1916" y="1452"/>
    </contour>
    <contour>
      <point x="1815" y="0" type="line"/>
      <point x="1815" y="68" type="line"/>
      <point x="1980" y="84" type="line"/>
      <point x="1980" y="971" type="line"/>
      <point x="1836" y="1021" type="line"/>
      <point x="1836" y="1072" type="line"/>
      <point x="2081" y="1133" type="line"/>
      <point x="2119" y="1114" type="line"/>
      <point x="2119" y="85" type="line"/>
      <point x="2285" y="68" type="line"/>
      <point x="2285" y="0" type="line"/>
    </contour>
  </outline>
</glyph>
<glyph name="ffl" format="1">
  <advance width="2373"/>
  <unicode hex="FB04"/>
  <outline>
    <contour>
      <point x="956" y="0" type="line"/>
      <point x="956" y="68" type="line"/>
      <point x="1160" y="85" type="line"/>
      <point x="1160" y="996" type="line"/>
      <point x="935" y="996" type="line"/>
      <point x="935" y="1056" type="line"/>
      <point x="1160" y="1100" type="line"/>
      <point x="1160" y="1205" type="line" smooth="yes"/>
      <point x="1160" y="1503"/>
      <point x="1383" y="1682"/>
      <point x="1558" y="1682" type="curve" smooth="yes"/>
      <point x="1639" y="1682"/>
      <point x="1675" y="1675"/>
      <point x="1701" y="1665" type="curve"/>
      <point x="1701" y="1536" type="line"/>
      <point x="1678" y="1550"/>
      <point x="1618" y="1565"/>
      <point x="1529" y="1565" type="curve" smooth="yes"/>
      <point x="1417" y="1565"/>
      <point x="1305" y="1518"/>
      <point x="1305" y="1261" type="curve" smooth="yes"/>
      <point x="1305" y="1100" type="line"/>
      <point x="1633" y="1100" type="line"/>
      <point x="1633" y="996" type="line"/>
      <point x="1305" y="996" type="line"/>
      <point x="1305" y="84" type="line"/>
      <point x="1547" y="68" type="line"/>
      <point x="1547" y="0" type="line"/>
    </contour>
    <contour>
      <point x="119" y="0" type="line"/>
      <point x="119" y="68" type="line"/>
      <point x="323" y="85" type="line"/>
      <point x="323" y="996" type="line"/>
      <point x="97" y="996" type="line"/>
      <point x="97" y="1056" type="line"/>
      <point x="323" y="1100" type="line"/>
      <point x="323" y="1205" type="line" smooth="yes"/>
      <point x="323" y="1503"/>
      <point x="545" y="1682"/>
      <point x="721" y="1682" type="curve" smooth="yes"/>
      <point x="802" y="1682"/>
      <point x="838" y="1675"/>
      <point x="864" y="1665" type="curve"/>
      <point x="864" y="1536" type="line"/>
      <point x="840" y="1550"/>
      <point x="781" y="1565"/>
      <point x="692" y="1565" type="curve" smooth="yes"/>
      <point x="580" y="1565"/>
      <point x="468" y="1518"/>
      <point x="468" y="1261" type="curve" smooth="yes"/>
      <point x="468" y="1100" type="line"/>
      <point x="795" y="1100" type="line"/>
      <point x="795" y="996" type="line"/>
      <point x="468" y="996" type="line"/>
      <point x="468" y="84" type="line"/>
      <point x="709" y="68" type="line"/>
      <point x="709" y="0" type="line"/>
    </contour>
    <contour>
      <point x="1812" y="0" type="line"/>
      <point x="1812" y="68" type="line"/>
      <point x="1978" y="85" type="line"/>
      <point x="1978" y="1496" type="line"/>
      <point x="1815" y="1520" type="line"/>
      <point x="1815" y="1589" type="line"/>
      <point x="2088" y="1623" type="line"/>
      <point x="2123" y="1602" type="line"/>
      <point x="2123" y="84" type="line"/>
      <point x="2298" y="68" type="line"/>
      <point x="2298" y="0" type="line"/>
    </contour>
  </outline>
</glyph>
<glyph name=".notdef" format="1">
  <advance width="1770"/>
  <outline>
    <contour>
      <point x="177" y="0" type="line"/>
      <point x="177" y="1416" type="line"/>
      <point x="1593" y="1416" type="line"/>
      <point x="1593" y="0" type="line"/>
    </contour>
    <contour>
      <point x="451" y="371" type="line"/>
      <point x="543" y="267" type="line"/>
      <point x="884" y="630" type="line"/>
      <point x="1232" y="263" type="line"/>
      <point x="1320" y="351" type="line"/>
      <point x="961" y="709" type="line"/>
      <point x="1319" y="1053" type="line"/>
      <point x="1226" y="1143" type="line"/>
      <point x="886" y="783" type="line"/>
      <point x="542" y="1147" type="line"/>
      <point x="454" y="1057" type="line"/>
      <point x="808" y="707" type="line"/>
    </contour>
  </outline>
</glyph>
<glyph name="acute.cap" format="1">
  <advance width="1062"/>
  <outline>
    <contour>
      <point x="507" y="1608" type="curve"/>
      <point x="465" y="1651" type="line"/>
      <point x="761" y="1920" type="line"/>
      <point x="867" y="1811" type="line"/>
      <point x="773" y="1736"/>
      <point x="628" y="1657"/>
    </contour>
  </outline>
</glyph>
<glyph name="breve.cap" format="1">
  <advance width="574"/>
  <outline>
    <contour>
      <point x="287" y="1607" type="curve" smooth="yes"/>
      <point x="84" y="1607"/>
      <point x="-37" y="1757"/>
      <point x="-37" y="1920" type="curve"/>
      <point x="31" y="1920" type="line"/>
      <point x="44" y="1857"/>
      <point x="97" y="1715"/>
      <point x="288" y="1715" type="curve" smooth="yes"/>
      <point x="480" y="1715"/>
      <point x="534" y="1860"/>
      <point x="547" y="1920" type="curve"/>
      <point x="611" y="1920" type="line"/>
      <point x="611" y="1757"/>
      <point x="479" y="1607"/>
    </contour>
  </outline>
</glyph>
<glyph name="dieresis.cap" format="1">
  <advance width="1004"/>
  <outline>
    <contour>
      <point x="716" y="1689" type="curve" smooth="yes"/>
      <point x="665" y="1689"/>
      <point x="617" y="1726"/>
      <point x="617" y="1784" type="curve" smooth="yes"/>
      <point x="617" y="1847"/>
      <point x="678" y="1897"/>
      <point x="735" y="1897" type="curve" smooth="yes"/>
      <point x="803" y="1897"/>
      <point x="834" y="1853"/>
      <point x="834" y="1801" type="curve" smooth="yes"/>
      <point x="834" y="1735"/>
      <point x="775" y="1689"/>
    </contour>
    <contour>
      <point x="259" y="1690" type="curve" smooth="yes"/>
      <point x="208" y="1690"/>
      <point x="160" y="1726"/>
      <point x="160" y="1785" type="curve" smooth="yes"/>
      <point x="160" y="1848"/>
      <point x="221" y="1897"/>
      <point x="277" y="1897" type="curve" smooth="yes"/>
      <point x="346" y="1897"/>
      <point x="377" y="1853"/>
      <point x="377" y="1802" type="curve" smooth="yes"/>
      <point x="377" y="1735"/>
      <point x="318" y="1690"/>
    </contour>
  </outline>
</glyph>
<glyph name="dotaccent.cap" format="1">
  <advance width="574"/>
  <outline>
    <contour>
      <point x="251" y="1690" type="curve" smooth="yes"/>
      <point x="200" y="1690"/>
      <point x="152" y="1726"/>
      <point x="152" y="1785" type="curve" smooth="yes"/>
      <point x="152" y="1848"/>
      <point x="213" y="1897"/>
      <point x="269" y="1897" type="curve" smooth="yes"/>
      <point x="338" y="1897"/>
      <point x="369" y="1853"/>
      <point x="369" y="1802" type="curve" smooth="yes"/>
      <point x="369" y="1735"/>
      <point x="310" y="1690"/>
    </contour>
  </outline>
</glyph>
<glyph name="ogonek.cap" format="1">
  <advance width="709"/>
  <outline>
    <contour>
      <point x="274" y="0" type="curve"/>
      <point x="340" y="7" type="line"/>
      <point x="413" y="0" type="line"/>
      <point x="289" y="-31"/>
      <point x="88" y="-178"/>
      <point x="88" y="-294" type="curve" smooth="yes"/>
      <point x="88" y="-375"/>
      <point x="125" y="-428"/>
      <point x="229" y="-428" type="curve" smooth="yes"/>
      <point x="283" y="-428"/>
      <point x="349" y="-405"/>
      <point x="389" y="-381" type="curve"/>
      <point x="407" y="-453" type="line"/>
      <point x="354" y="-494"/>
      <point x="252" y="-526"/>
      <point x="148" y="-526" type="curve" smooth="yes"/>
      <point x="40" y="-526"/>
      <point x="-50" y="-453"/>
      <point x="-50" y="-335" type="curve" smooth="yes"/>
      <point x="-50" y="-209"/>
      <point x="106" y="-59"/>
    </contour>
  </outline>
</glyph>
